<?xml version="1.0" encoding="UTF-8"?>
<svg id="Layer_2" data-name="Layer 2" xmlns="http://www.w3.org/2000/svg" viewBox="0 0 333.71 296.26">
  <defs>
    <style>
      .cls-1, .cls-2 {
        fill: #231f20;
      }

      .cls-2 {
        font-family: Herculanum, Herculanum;
        font-size: 41px;
      }
    </style>
  </defs>
  <g id="Layer_1-2" data-name="Layer 1">
    <g>
      <g>
        <path class="cls-1" d="M77.45,83.5c4.19-3.92,6.4-5.77,11.02-9.23-23.11,37.26-27.32,77.25-21.59,120.17-1.78-45.4,8.52-86.88,30.77-126.45,4.93-3.07,7.49-4.48,12.78-7.02-27.25,69.88-27.25,148.81,0,218.69-3.3-1.58-4.91-2.43-8.07-4.22-24.65-52.23-28.72-108.33-16.7-164.51-13.69,52.42-16.46,111.97,10.72,160.91-2.76-1.76-4.1-2.68-6.73-4.6-30.19-45.44-42.13-96.52-27.68-149.78-16.38,51.36-9.53,101.81,22.22,145.57-2.78-2.26-4.13-3.44-6.73-5.88-44.87-52.24-44.83-121.45,0-173.65Z"/>
        <path class="cls-1" d="M133.02,253.97c-6.03-.78-8.99-1.25-14.81-2.34,1.62,11.45,3.57,22.46,6.07,33.75-4.36-1.52-6.5-2.37-10.67-4.23-21.98-73.9-10.52-154.42,12.76-226.58,4.7-1.55,7.09-2.22,11.98-3.34-8.61,80.11,.98,161.48,13.87,240.61-4.86-.59-7.26-1-11.98-2-2.72-11.89-5.12-23.86-7.23-35.88Zm-7.23-52.72c-2.83-30.56-3.99-60.94-2.94-91.62-4.55,30.3-7.09,60.46-7.47,91.11,4.12,.23,6.2,.33,10.41,.52Z"/>
        <path class="cls-1" d="M175.95,207.15c.13-18.61,.16-37.21,.11-55.81,9.71,.04,14.5,.1,23.92,.27,.44,36.15-.73,72.12-3.96,108.14-3.69,9.69-7.11,20.06-12.47,28.88-3,4.94-6.3,7.49-9.93,7.63-4.48,.17-8.21-3.98-11.44-12.76-4.92-13.39-7.14-27.8-9.2-41.82-3.43-23.43-4.48-47.71-4.49-71.36-.01-24.39,1.26-49.23,4.85-73.59,2.1-14.29,4.74-28.94,10.11-42.25,2.79-6.91,6.34-10.25,10.66-10.07,4.16,.17,7.34,2.5,9.8,6.88,2.46,4.38,4.92,11.13,7.28,20.66,3.07,12.46,4.86,25.14,6.49,37.87-5.24,4.88-8,7.44-13.7,12.73-.82-9.64-2.04-16.8-3.56-21.73-1.51-4.93-3.29-7.37-5.4-7.41-3.14-.06-5.67,5.54-7.61,17.3-3.18,19.26-3.16,39.29-3.18,58.7-.02,20.09-.17,41.03,3.21,60.98,1.96,11.58,4.61,17.09,7.98,17.03,1.6-.03,3.15-1.27,4.68-3.74,1.53-2.47,3.34-6.67,5.48-12.73,.32-9.36,.45-14.16,.65-23.93-4.09,.08-6.14,.11-10.28,.15Z"/>
        <path class="cls-1" d="M199.18,51.22c6.65,1.52,9.9,2.49,16.2,4.8,3.1,1.14,6.34,4.44,9.9,9.9,3.56,5.45,7.6,12.88,11.66,22.71,4.71,11.39,8.32,23.22,10.84,35.29,3.15,15.1,4.68,30.58,4.73,45.59,.07,19.07-1.7,39.4-7.14,58.02-3.18,10.89-6.87,21.84-11.86,32.18-4.08,8.45-7.5,14.16-10.07,17.34-3.54,4.37-6.17,6.91-8.05,7.6-6.29,2.31-9.54,3.27-16.2,4.8,13.86-78.43,13.86-159.79,0-238.21Zm20.62,51.43c5.56,45.19,5.57,90,.02,135.19,1.32-.18,1.98-.28,3.29-.48,2.79-.42,5.02-2.37,6.7-5.83,1.68-3.47,3.54-9.36,5.13-17.86,2.63-14.04,3.46-28.62,3.47-42.65,0-17.52-.98-36.11-5.85-53.24-2.63-9.25-5.96-14.12-9.42-14.64-1.33-.2-2-.3-3.35-.49Z"/>
        <path class="cls-1" d="M254.41,209.64c5.24-2.34,7.83-3.51,12.92-5.79-1.41,10.23-2.86,17.56-3.58,22.37-1.15,7.77-1.11,10.9,1.01,10.1,1.58-.6,3.6-2.95,5.95-7.1,2.35-4.15,4.41-8.79,5.95-14.09,1.46-5.03,2.1-9.55,2-13.57-.1-4.02-1.66-7.76-4.6-11.38-6.25-7.71-8.96-17.93-11.4-27.18-3.72-14.13-5.88-29.26-8.84-43.86-1.99-9.83-4.2-19.67-6.68-29.4-2.15-8.43-3.7-14.13-4.27-17.48-.57-3.34,.37-3.67,3.27-1.41,3.56,2.77,9.07,8.45,16.3,17.09,10.27,12.28,17.74,25.32,24.01,40.03-3.77,.02-5.74,.11-9.85,.42-2.64-8.94-5.6-15.24-7.99-19.37-2.39-4.13-4.41-6.48-5.97-7.08-1.28-.49-1.67,.56-1.29,3.27,.38,2.71,1.22,6.25,2.47,10.65,.91,3.21,1.96,6.23,3.15,8.97,1.23,2.82,3.15,5.67,5.8,8.41,6.61,6.98,11.47,13.45,14.48,19.72,3.01,6.26,5.17,14,5.91,22.78,.76,9.07-.2,20-2.97,28.53-3.76,11.58-8.49,21.45-14.99,31.76-4.89,7.74-11.24,15.33-17.49,22.21-5.01,5.51-8.8,9.46-11.5,11.56-4.74,3.69-4.66,.99-1.69-10.05,4.43-16.44,7.38-33.24,9.9-50.09Z"/>
      </g>
      <text class="cls-2" transform="translate(34.87 191.08) rotate(-94.82)"><tspan x="0" y="0">G</tspan></text>
      <text class="cls-2" transform="translate(32.62 165.38) rotate(-83.59)"><tspan x="0" y="0">A</tspan></text>
      <text class="cls-2" transform="translate(35.93 138.31) rotate(-73.17)"><tspan x="0" y="0">L</tspan></text>
      <text class="cls-2" transform="translate(42.08 117.97) rotate(-64.01)"><tspan x="0" y="0">L</tspan></text>
      <text class="cls-2" transform="translate(51.43 98.92) rotate(-55.25)"><tspan x="0" y="0">E</tspan></text>
      <text class="cls-2" transform="translate(62.54 82.69) rotate(-46.22)"><tspan x="0" y="0">R</tspan></text>
      <text class="cls-2" transform="translate(75.62 67.78) rotate(-35.24)"><tspan x="0" y="0">Y</tspan></text>
      <text class="cls-2" transform="translate(104.63 48.53) rotate(-25.33)"><tspan x="0" y="0"> </tspan></text>
      <text class="cls-2" transform="translate(114.69 43.2) rotate(-17.33)"><tspan x="0" y="0">o</tspan></text>
      <text class="cls-2" transform="translate(139.35 35.68) rotate(-7.06)"><tspan x="0" y="0">f</tspan></text>
      <text class="cls-2" transform="translate(161.26 33.22) rotate(.93)"><tspan x="0" y="0"> </tspan></text>
      <text class="cls-2" transform="translate(172.53 32.77) rotate(8.03)"><tspan x="0" y="0">D</tspan></text>
      <text class="cls-2" transform="translate(198.7 36.95) rotate(16.68)"><tspan x="0" y="0">I</tspan></text>
      <text class="cls-2" transform="translate(211.88 40.42) rotate(25.16)"><tspan x="0" y="0">G</tspan></text>
      <text class="cls-2" transform="translate(235.01 51.78) rotate(33.61)"><tspan x="0" y="0">I</tspan></text>
      <text class="cls-2" transform="translate(246.47 59.13) rotate(40.88)"><tspan x="0" y="0">T</tspan></text>
      <text class="cls-2" transform="translate(262.15 72.3) rotate(51.04)"><tspan x="0" y="0">A</tspan></text>
      <text class="cls-2" transform="translate(279.1 93.68) rotate(61.4)"><tspan x="0" y="0">L</tspan></text>
      <text class="cls-2" transform="translate(288.99 112.45) rotate(68.41)"><tspan x="0" y="0"> </tspan></text>
      <text class="cls-2" transform="translate(293.21 121.37) rotate(76.09)"><tspan x="0" y="0">A</tspan></text>
      <text class="cls-2" transform="translate(299.56 147.92) rotate(86.8)"><tspan x="0" y="0">R</tspan></text>
      <text class="cls-2" transform="translate(300.75 170.63) rotate(95.93)"><tspan x="0" y="0">T</tspan></text>
    </g>
  </g>
</svg>