<?xml version="1.0" encoding="UTF-8"?>
<svg id="Layer_2" data-name="Layer 2" xmlns="http://www.w3.org/2000/svg" viewBox="0 0 35.41 19.5">
  <defs>
    <style>
      .cls-1 {
        fill: #27aae1;
      }

      .cls-2 {
        opacity: .32;
      }
    </style>
  </defs>
  <g id="trace">
    <g class="cls-2">
      <path class="cls-1" d="M1.39,15.05c2.98-.64,6.37-1.59,7.54-4.69,1.46-2.74-1.66-6.25-3.55-2.84-.39,.78-.45,1.89,0,2.32,.48,.44,1.12,.57,1.37-.31,0,0,.3-.17,.3-.17,.98,1.06-.47,2.61-1.75,2.01-3.12-1.43-1.13-6.59,2.03-6.5,1.39,.06,2.44,1.14,2.87,2.37,.81,2.42-.74,4.71-2.45,6.22-1.89,1.38-4.11,1.59-6.31,1.92,0,0-.05-.34-.05-.34h0Z"/>
      <path class="cls-1" d="M0,17.16c4.67-3.46,10.84-.64,16-.15,5.53,.97,10.75-1.92,10.67-7.95,.05-3.47-1.22-6.9-5.06-7.53-3.33-.74-6.89,.8-8.39,3.9-2.82,4.95,.02,10.88,6.04,8.16,1.7-.88,2.68-4.49,1.42-5.93-.77-.88-2.88-1.2-3.49-.06-.27,.51-.3,1.19-.65,2.2l-.33,.09c-1.42-1.09-.72-3.68,.95-4.3,1.59-.66,3.42-.24,4.65,1,2.03,2.3,.68,7.03-1.85,8.35-3.92,2.04-8.9,.16-9.24-4.55-.32-3.89,1.83-8.05,5.42-9.65C19.71-.76,24.6-.02,26.65,3.5c.91,1.69,1.17,3.67,1.16,5.57-.05,6.65-5.79,10-11.92,8.74-5.06-.6-10.96-3.55-15.64-.42,0,0-.26-.23-.26-.23H0Z"/>
      <path class="cls-1" d="M22.36,14.17c3.55-3.95,.81-11.68-5.14-9.56-1.75,.57-3.08,1.85-3.01,3.67-.05,1.47,1.27,3.15,2.82,2.93,.91-.38,1.68-1.18,1.86-2.3,0,0,.31-.14,.31-.14,1.3,1.39-.04,3.62-1.72,4.04-1.69,.46-3.46-.74-4.29-2.18-.73-1.25-.72-2.74-.29-4.07,1.88-4.7,9.64-4.88,11.34,0,1.01,2.65,.52,6-1.68,7.89,0,0-.21-.27-.21-.27h0Z"/>
      <path class="cls-1" d="M20.21,19c4.58,.03,10.21-1.29,12.76-5.4,.75-1.19,.99-3.24,.91-4.31-.28-1.58-1.85-2.74-3.23-1.63-1.26,1.06-1.65,2.52,.44,2.27,0,0,.22,.26,.22,.26-.24,1.04-1.91,1.52-2.73,.64-.9-.8-.66-2.31-.11-3.1,.92-1.65,3.12-2.73,4.9-1.71,1.2,.66,1.82,1.89,2.01,3.07,.33,3.65-1.96,7.19-5.23,8.67-3.1,1.49-6.6,2.04-9.99,1.58,0,0,.05-.34,.05-.34h0Z"/>
    </g>
  </g>
</svg>