<?xml version="1.0" encoding="UTF-8"?>
<svg id="Layer_2" data-name="Layer 2" xmlns="http://www.w3.org/2000/svg" viewBox="0 0 255.01 63.23">
  <defs>
    <style>
      .cls-1 {
        fill: #231f20;
      }
    </style>
  </defs>
  <g id="trace">
    <g>
      <path class="cls-1" d="M.13,50.17c6.32,.32,14.04,.66,18.78-4.23,4.77-4.8,9.35-9.97,14.33-14.7,8.64-7.94,18.8-17.43,31.15-18.26,15.5-1.24,23.5,11.01,20.2,25.38-1.49,8.33-8.81,12.61-16.82,12.02-3.8-.32-7.56-1.01-10.68-3.43-3.13-3.49-5.36-8.96-3.49-13.58,1.16-2.84,4.57-4.18,7.28-4.09,0,0,.16,.99,.16,.99-5.51,1.75-6.07,5.6-3.95,10.45,.58,1.27,1.32,2.74,2.25,3.74,2.34,1.75,5.71,2.4,8.62,2.63,6.51,.51,12.33-2.67,13.53-9.41,2.89-12.5-3.42-22.65-16.93-21.82-11.44,.56-21.5,9.69-29.77,17.02-5.05,4.63-9.73,9.55-14.71,14.29-2.45,2.57-6.21,3.8-9.68,4.14-3.48,.39-6.94,.28-10.39-.15l.13-.99H.13Z"/>
      <path class="cls-1" d="M17.74,51.96c3.68,.6,7.86,.09,10.83-2.27,3.55-3.56,6.16-8.03,9.36-12.06,2.81-3.66,5.74-7.29,9.13-10.56,3.49-3.31,7.41-6.4,12.22-7.68,7.81-2.27,16.26,.08,19.35,8.23,.91,2.47,1.38,5.16,.95,7.77-1.04,5.44-6.15,9.7-11.68,9.8-4.44,.25-8.82-3.76-8.09-8.35,.18-1.42,1.2-3.08,2.71-3.29,0,0,.41,.91,.41,.91-1.51,2.12,.56,5.29,2.57,6.25,4.08,2.03,9.56-1.78,10.3-6.02,.17-.92,.13-1.89,0-2.83-1.09-8.26-8.12-11.19-15.69-9.16-4.02,.95-7.69,3.61-10.98,6.58-4.83,4.32-9.42,10.15-13.56,15.24-1.86,2.21-3.62,4.62-5.91,6.53-3.49,2.53-8.1,2.86-12.17,1.88,0,0,.24-.97,.24-.97h0Z"/>
      <path class="cls-1" d="M86.39,46.62c11.64,2.1,23.36,4.22,35.13,5.29,5.7,.54,11.52,.88,16.3-2.7,9.52-6.45,10.58-20.76,5.16-30.13-4.04-7.36-13.8-9.84-20.99-5.78-3.59,1.89-6.29,4.95-6.99,9.04-.74,3.56-1.11,8.31,.92,11.39,1.88,3.5,5.3,6.37,9.49,5.74,2.67-.58,3.05-4.62,3.51-7.17,0,0,.99-.17,.99-.17,.24,.45,.43,.91,.62,1.38,.91,2.69,.83,5.84-1.35,8-2.98,2.75-7.82,1.97-11.18-.15-2.21-1.47-3.86-3.36-5.1-5.7,0,0,.23,.36,.23,.36-1.25-1.63-1.68-3.33-1.99-4.95-.74-5.6-.01-11.75,3.52-16.33,8.53-9.86,24.66-8.95,31.17,2.66,4.47,8.26,4.81,18.97-.03,27.13-3.26,5.4-9,9.5-15.37,10.02-9.11,.24-17.89-1.77-26.77-3.29-5.85-1.1-11.66-2.34-17.46-3.69,0,0,.21-.98,.21-.98h0Z"/>
      <path class="cls-1" d="M42.31,52.39c22.03,.98,44.24,1.92,65.93,6.14,6.96,1.86,14.23,2.61,21.32,1.04,8.18-1.77,16.56-5.6,22.24-11.81,4.73-6.66,6.3-16.15,4.18-24-1.49-5.4-4.98-9.99-9.46-13.31C137.8,3.93,125.14,.05,115.45,6.46c-12.2,7.66-13.6,25.95-2.81,35.43,5.27,4.07,14.88,6.06,20.24,1.35,2.07-2.13,3.94-5.08,3.03-8.07-.73-2.48-2.77-4.53-4.56-6.53,0,0,.55-.84,.55-.84,7.41,2.64,10.17,9.69,4.98,16.06-5.04,7.02-15.23,6.38-22.26,3.16-4.42-1.88-7.81-5.87-9.85-10.07-7.52-14.74,1.11-33.75,17.71-36.58,9.29-1.59,18.51,2.21,25.9,7.61,4.96,3.68,8.85,8.99,10.43,15.01,2.24,9.03,.48,18.96-4.96,26.46-6.29,6.76-14.95,10.6-23.82,12.48-5.92,1.16-12.09,1.11-17.98-.24-4.11-1.07-8.69-2.07-12.87-2.73-13.02-2.15-26.19-3.33-39.34-4.37-5.85-.46-11.72-.87-17.58-1.19,0,0,.04-1,.04-1h0Z"/>
      <path class="cls-1" d="M155.54,50.17c5.75-1.5,12.26-2.67,16.91-6.55,3.11-3.02,5.72-6.91,6.19-11.21,.46-7.36-7.31-12.09-11.41-4.23-1.13,2.25-1.35,5.51-.05,6.75,.42,.51,1.55,1.03,2.15,1.01,.44,.12,1.58-.64,1.86-1.92l.87-.5c1.78,1.76,.84,4.85-1.45,5.87-1.25,.57-2.66,.42-3.66,.01-9.25-4.02-3.17-19.5,5.95-19.03,6.02,.33,9.76,6.87,8.99,12.37-.72,5.14-3.95,9.51-7.74,12.78-2.55,2.14-5.92,3.09-9.06,3.93-3.1,.8-6.23,1.34-9.39,1.69,0,0-.15-.99-.15-.99h0Z"/>
      <path class="cls-1" d="M151.47,56.34c14.19-11.43,38.08,.68,54.54-.05,10.28-.07,19.84-5.99,22.45-16.26,1.87-7.1,1.2-15.29-2.12-21.86-2.39-4.08-6.88-6.67-11.66-7.61-7.07-1.34-15.14,.12-20.17,5.5-5.06,5.18-8.17,12.8-7.43,19.98,.68,7.5,6.44,12.5,14,11.68,2.88-.27,5.79-1.03,8.1-2.7,3.66-3.2,6.37-12.63,2.79-16.52-2.34-2.54-8.14-3.61-10.22-.18-.77,1.49-.83,3.49-1.87,6.45l-.96,.27c-1.27-1.05-1.96-2.47-2.22-4.06-.76-11.44,15.5-12.18,20.11-3.51,3.18,6.33,.38,16.61-4.9,21.06-5.4,3.78-13.13,4.77-19.27,2.25-14.92-6.82-10.99-28.07-1.08-37.58,9.78-10.3,30.44-9.47,37.9,3.17,2.63,4.97,3.4,10.76,3.36,16.32-.17,15.44-11.29,26.46-26.76,26.24-16.09,.41-39.86-12.13-53.83-1.91,0,0-.75-.66-.75-.66h0Z"/>
      <path class="cls-1" d="M216.87,47.6c7.23-7.61,6.02-24.22-4.65-28.12-6.56-2.33-17.51,.84-18.93,8.42-.92,3.94,.58,8.24,4.2,10.23,1.22,.63,2.4,1.23,3.79,.81,2.74-1.1,4.99-3.67,5.45-6.74,0,0,.91-.41,.91-.41,3.85,4.05-.22,10.68-5.02,11.8-4.93,1.35-10.12-2.18-12.53-6.38-3.56-6.2-1.43-15,4.55-18.77,5.49-3.73,12.61-4.85,18.91-2.44,8.33,3.24,11.7,13.58,9.88,21.73-.87,4.02-2.57,8.07-5.93,10.66,0,0-.61-.8-.61-.8h0Z"/>
      <path class="cls-1" d="M210.58,61.73c12.7,.35,30.53-4.24,37.34-15.79,2.27-3.89,2.94-8.42,2.59-12.89,0,0,.03,.26,.03,.26-.28-1.2-.72-2.32-1.34-3.28-.61-.97-1.46-1.71-2.36-2.18-2.94-1.7-6.5,.57-8.04,3.34-1.95,3.23,.07,4.36,3.59,3.99,0,0,.65,.76,.65,.76-1.67,4.95-8.97,3.95-9.67-1.37-.47-4.28,1.93-7.29,4.86-9.76,6.95-5.33,15.37-.38,16.66,7.66,1.52,18.06-13.64,27.76-29.6,30.05-4.93,.73-9.92,1.05-14.87,.2,0,0,.15-.99,.15-.99h0Z"/>
    </g>
  </g>
</svg>