<?xml version="1.0" encoding="UTF-8"?>
<svg id="Layer_2" data-name="Layer 2" xmlns="http://www.w3.org/2000/svg" xmlns:xlink="http://www.w3.org/1999/xlink" viewBox="0 0 714.44 584.25">
  <defs>
    <style>
      .cls-1 {
        opacity: .11;
      }

      .cls-1, .cls-2 {
        fill: #fdb913;
      }

      .cls-3 {
        fill: url(#linear-gradient);
      }

      .cls-4 {
        fill: #00aeef;
      }

      .cls-5 {
        fill: #00addc;
      }

      .cls-6 {
        fill: #ed1c24;
      }

      .cls-7 {
        fill: #939598;
      }

      .cls-8 {
        fill: #524fa1;
      }

      .cls-9 {
        fill: none;
        stroke: #231f20;
        stroke-miterlimit: 10;
        stroke-width: .87px;
      }

      .cls-10 {
        font-family: CalibanStd, 'Caliban Std';
        font-size: 24px;
      }

      .cls-10, .cls-11 {
        fill: #231f20;
      }

      .cls-12 {
        fill: url(#radial-gradient-2);
        opacity: .97;
      }

      .cls-13 {
        fill: url(#radial-gradient-3);
      }

      .cls-14 {
        fill: url(#radial-gradient-4);
      }

      .cls-15 {
        opacity: .69;
      }

      .cls-16 {
        fill: url(#radial-gradient);
      }

      .cls-11 {
        font-family: Iskra-Bold, Iskra;
        font-size: 51px;
        letter-spacing: .07em;
      }
    </style>
    <linearGradient id="linear-gradient" x1="-1.88" y1="313.25" x2="438.97" y2="313.25" gradientUnits="userSpaceOnUse">
      <stop offset=".05" stop-color="#524fa1" stop-opacity=".5"/>
      <stop offset=".19" stop-color="#7774b5" stop-opacity=".61"/>
      <stop offset=".4" stop-color="#a7a5cf" stop-opacity=".75"/>
      <stop offset=".6" stop-color="#cdcce3" stop-opacity=".86"/>
      <stop offset=".77" stop-color="#e8e7f2" stop-opacity=".93"/>
      <stop offset=".91" stop-color="#f8f8fb" stop-opacity=".98"/>
      <stop offset="1" stop-color="#fff"/>
    </linearGradient>
    <radialGradient id="radial-gradient" cx="481.46" cy="365.5" fx="481.46" fy="365.5" r="100.48" gradientTransform="translate(52.34 143.9) rotate(22.8) scale(1 .1)" gradientUnits="userSpaceOnUse">
      <stop offset=".02" stop-color="#fff"/>
      <stop offset=".11" stop-color="#fff" stop-opacity=".89"/>
      <stop offset=".38" stop-color="#fff" stop-opacity=".57"/>
      <stop offset=".56" stop-color="#fff" stop-opacity=".38"/>
      <stop offset=".65" stop-color="#fff" stop-opacity=".3"/>
      <stop offset=".67" stop-color="#d9f3f9" stop-opacity=".4"/>
      <stop offset=".72" stop-color="#97ddf0" stop-opacity=".58"/>
      <stop offset=".76" stop-color="#60cce9" stop-opacity=".74"/>
      <stop offset=".81" stop-color="#35bee3" stop-opacity=".85"/>
      <stop offset=".85" stop-color="#17b4df" stop-opacity=".94"/>
      <stop offset=".91" stop-color="#05aedc" stop-opacity=".98"/>
      <stop offset=".97" stop-color="#00addc"/>
    </radialGradient>
    <radialGradient id="radial-gradient-2" cx="521.87" cy="260.85" fx="521.87" fy="260.85" r="36.82" gradientTransform="translate(53.27 20.03) rotate(19.31) scale(1 .28)" gradientUnits="userSpaceOnUse">
      <stop offset=".02" stop-color="#fff"/>
      <stop offset=".13" stop-color="#fef8ea"/>
      <stop offset=".37" stop-color="#fee9b5"/>
      <stop offset=".7" stop-color="#fdd060"/>
      <stop offset=".98" stop-color="#fdb913"/>
    </radialGradient>
    <radialGradient id="radial-gradient-3" cx="539.59" cy="206.22" fx="539.59" fy="206.22" r="10.51" gradientTransform="translate(155.96 -259.48) rotate(23.94) scale(1 1.31)" gradientUnits="userSpaceOnUse">
      <stop offset=".13" stop-color="#fff"/>
      <stop offset=".4" stop-color="#f8b1b4"/>
      <stop offset=".69" stop-color="#f26167"/>
      <stop offset=".9" stop-color="#ee2f36"/>
      <stop offset="1" stop-color="#ed1c24"/>
    </radialGradient>
    <radialGradient id="radial-gradient-4" cx="584.01" cy="104.39" fx="584.01" fy="104.39" r="12.45" gradientTransform="translate(106.07 -266.64) rotate(22.67) scale(1 1.52)" gradientUnits="userSpaceOnUse">
      <stop offset=".02" stop-color="#fff"/>
      <stop offset=".03" stop-color="#fff"/>
      <stop offset=".24" stop-color="#f9bbbd"/>
      <stop offset=".43" stop-color="#f58286"/>
      <stop offset=".61" stop-color="#f1565c"/>
      <stop offset=".77" stop-color="#ef363d"/>
      <stop offset=".91" stop-color="#ed222a"/>
      <stop offset="1" stop-color="#ed1c24"/>
    </radialGradient>
  </defs>
  <g id="LOGO">
    <g>
      <g>
        <g id="road_to_success" data-name="road to success">
          <path class="cls-3" d="M227.14,184.78c-.79,1.21-1.5,2.16-2.18,3.19l-1.94,2.91c-.31,.49-.6,.89-.89,1.33l-.85,1.31c-.55,.86-1.07,1.6-1.58,2.44-2,3.09-3.66,5.94-5.17,8.27-3,4.75-5.47,8.21-8.28,10.74-1.4,1.25-2.86,2.29-4.45,3.12-.79,.41-1.62,.79-2.46,1.12-.85,.35-1.7,.71-2.55,1.1-3.42,1.54-6.92,3.32-10.43,5.35-7.03,4.02-14.11,8.9-21.08,14.23-6.98,5.35-13.88,11.17-20.65,17.31-6.77,6.14-13.4,12.62-19.95,19.28-6.55,6.66-12.98,13.54-19.31,20.58-3.16,3.52-6.3,7.08-9.41,10.68l-4.67,5.4-4.73,5.56c-6.38,7.49-12.19,14.39-16.86,20.98-4.67,6.57-8.15,12.73-10.01,18.24-.47,1.38-.84,2.72-1.15,4.04l-.21,.98-.17,.98c-.07,.33-.1,.65-.14,.97l-.07,.48-.02,.11h0s0-.03,0-.03c-.11-.17-.09,1.38,.44,3.05,.49,1.69,1.45,3.58,2.31,4.78,.42,.6,.8,1.02,.93,1.18,.07,.1,.04,.06,.03,.1-.01,.02-.11-.07-.18-.06-.09-.03-.24-.12-.37-.14-.61-.25-1.63-.42-1.72-.35-.16,.05,.77,.13,2.47,.02l1.39-.1,1.62-.14,3.54-.34c1.98-.19,3.97-.42,6-.71,8.08-1.15,16.49-3.15,25.19-5.66,4.35-1.24,8.78-2.62,13.28-4.08,4.51-1.45,9.08-3.04,13.62-4.55,18.17-6.22,36.26-12.95,54.25-20.08l13.49-5.41c4.48-1.86,8.98-3.67,13.45-5.57,8.96-3.75,17.93-7.53,26.86-11.43,17.89-7.74,35.67-15.91,53.51-24.06,17.75-8.06,36.3-17.07,56.79-23.65,5.13-1.6,10.37-3.05,15.71-4.27l4.03-.86c1.35-.29,2.88-.57,4.38-.82,3.03-.49,6.22-.87,9.65-.98,3.43-.11,7.11,.04,11.06,.76,3.93,.72,8.18,2.06,12.22,4.37,4.04,2.29,7.7,5.5,10.47,9.21,2.78,3.69,4.62,7.71,5.76,11.51,1.16,3.81,1.64,7.46,1.82,10.89,.17,3.44,0,6.7-.35,9.83-.18,1.56-.41,3.1-.69,4.61-.28,1.45-.58,2.81-.87,4.21-.32,1.38-.68,2.74-1.02,4.11-.37,1.36-.77,2.69-1.15,4.04-3.26,10.66-7.77,20.4-12.58,29.5-4.85,9.09-9.98,17.62-14.77,26.05-2.4,4.21-4.71,8.4-6.86,12.6-2.17,4.19-4.2,8.4-5.97,12.66-1.78,4.26-3.31,8.57-4.52,12.95-.59,2.18-1.15,4.42-1.56,6.56-.41,2.15-.7,4.26-.83,6.3-.12,2.04-.06,4.02,.22,5.9,.29,1.88,.79,3.66,1.57,5.42,1.56,3.5,4.2,6.76,7.52,9.45,3.3,2.72,7.26,4.89,11.5,6.39,4.21,1.52,8.86,2.24,13.58,2.63,4.73,.33,9.58,.19,14.45-.21,4.88-.38,9.78-.99,14.69-1.63l.21,.98c-4.72,1.48-9.47,2.94-14.32,4.18-4.86,1.2-9.84,2.17-14.97,2.64-5.13,.43-10.41,.39-15.74-.64-5.29-1.02-10.49-2.87-15.32-5.74-4.8-2.88-9.26-6.84-12.51-11.97-1.62-2.55-2.92-5.4-3.8-8.31-.88-2.91-1.38-5.86-1.62-8.75-.24-2.89-.23-5.72-.06-8.46,.16-2.75,.48-5.38,.84-8.03,.75-5.29,1.89-10.49,3.28-15.57,1.39-5.08,3.04-10.04,4.82-14.88,1.81-4.83,3.75-9.55,5.71-14.18,3.94-9.26,7.99-18.2,11.44-27,3.48-8.78,6.39-17.42,8.01-25.88l.55-3.16,.43-3.14,.31-3.09c.07-.93,.1-1.85,.1-2.74,.04-3.57-.59-6.8-1.44-8.53-.41-.88-.83-1.33-1.11-1.51-.29-.17-.48-.18-.79-.23-.31-.04-.85-.13-1.79-.16-.93-.03-2.21,.03-3.7,.24-1.49,.21-3.19,.57-4.99,1.05-.92,.25-1.8,.49-2.84,.82l-3.14,.99c-4.18,1.38-8.33,2.95-12.48,4.68-16.65,6.85-33.07,16.38-50.5,26.09-8.65,4.87-17.42,9.57-26.18,14.29-8.78,4.7-17.59,9.37-26.46,13.96-17.73,9.21-35.68,18.1-53.93,26.56-4.57,2.11-9.13,4.22-13.74,6.26l-6.9,3.07-6.94,3.01c-4.61,2.03-9.29,3.95-13.94,5.92-4.67,1.94-9.36,3.82-14.06,5.7-4.73,1.83-9.4,3.7-14.2,5.5-4.8,1.81-9.72,3.6-14.78,5.3-10.11,3.4-20.82,6.46-32.19,8.59-2.84,.53-5.73,1-8.64,1.4l-3.8,.52-2.05,.26-2.29,.26c-3.2,.33-7.23,.67-12.3,.27-5-.36-10.88-1.67-16.01-3.9-1.24-.56-2.52-1.14-3.69-1.76-1.13-.62-2.33-1.27-3.37-1.93-2.07-1.3-4.14-2.74-5.95-4.24-3.67-2.98-6.71-6.15-9.36-9.41-5.27-6.54-9.09-13.43-11.9-21.02-1.39-3.8-2.51-7.79-3.26-12.08-.73-4.29-1.12-8.88-.83-13.9l.06-.94,.07-.82,.13-1.35c.09-.9,.17-1.81,.31-2.7l.38-2.68,.47-2.65c.67-3.51,1.53-6.95,2.54-10.28,2.04-6.64,4.66-12.81,7.57-18.48,2.91-5.67,6.09-10.89,9.36-15.71,6.54-9.66,13.34-17.96,19.56-25.63l4.73-5.82,4.87-5.9c3.28-3.92,6.6-7.81,9.96-11.68,13.46-15.48,27.62-30.62,43.15-44.99,15.56-14.36,32.31-28.12,52.39-39.81,5.02-2.91,10.3-5.66,15.86-8.18,2.8-1.22,5.61-2.55,8.65-3.44,3.02-.92,6.23-1.46,9.56-1.6,3.32-.16,6.79,.16,10.27,.93,3.48,.77,7,2.06,10.4,3.94,1.69,.92,3.37,2.04,4.98,3.28,.4,.32,.8,.64,1.2,.97l1.17,1.06,1.14,1.09c.38,.35,.75,.74,1.11,1.17,1.46,1.61,2.83,3.38,4.07,5.4,.62,1.03,1.21,2.02,1.74,3.24,.54,1.17,1.05,2.27,1.49,3.63l-.14,.99Z"/>
        </g>
        <path id="trailing_thread" data-name="trailing thread" class="cls-9" d="M465.87,423.15c.44,18.37-12.44,35.77-29.44,49.42-17,13.65-38.06,24.25-58.01,35.62s-39.39,23.96-51.44,40.13c-1.98,2.66-3.8,5.73-2.58,8.63,1.39,3.3,6.45,5.2,11.21,5.26s9.31-1.33,13.66-2.74c50.63-16.39,98.15-38.73,151.95-48.51,20.5-3.73,44.85-4.87,60.18,5.65,10.69,7.34,14.12,18.49,21.31,27.79,16.71,21.61,56.94,31.86,88.7,22.58"/>
        <text class="cls-11" transform="translate(613.57 557.79)"><tspan x="0" y="0">SBR</tspan></text>
        <text class="cls-10" transform="translate(367.35 571.36) rotate(-19.66)"><tspan x="0" y="0">S</tspan></text>
        <text class="cls-10" transform="translate(378.41 567.4) rotate(-20.13)"><tspan x="0" y="0">m</tspan></text>
        <text class="cls-10" transform="translate(394.1 561.64) rotate(-20.25)"><tspan x="0" y="0">a</tspan></text>
        <text class="cls-10" transform="translate(404.64 557.75) rotate(-20.14)"><tspan x="0" y="0">l</tspan></text>
        <text class="cls-10" transform="translate(411.19 555.35) rotate(-19.96)"><tspan x="0" y="0">l</tspan></text>
        <text class="cls-10" transform="translate(417.75 552.98) rotate(-19.69)"><tspan x="0" y="0"> </tspan></text>
        <text class="cls-10" transform="translate(424.22 550.66) rotate(-19.12)"><tspan x="0" y="0">B</tspan></text>
        <text class="cls-10" transform="translate(437.61 546.04) rotate(-18.12)"><tspan x="0" y="0">u</tspan></text>
        <text class="cls-10" transform="translate(449.46 542.2) rotate(-17.06)"><tspan x="0" y="0">s</tspan></text>
        <text class="cls-10" transform="translate(458.61 539.42) rotate(-16.11)"><tspan x="0" y="0">i</tspan></text>
        <text class="cls-10" transform="translate(465.45 537.44) rotate(-14.89)"><tspan x="0" y="0">n</tspan></text>
        <text class="cls-10" transform="translate(477.28 534.35) rotate(-13.36)"><tspan x="0" y="0">e</tspan></text>
        <text class="cls-10" transform="translate(486.35 532.23) rotate(-11.87)"><tspan x="0" y="0">s</tspan></text>
        <text class="cls-10" transform="translate(495.63 530.31) rotate(-10.13)"><tspan x="0" y="0">s</tspan></text>
        <text class="cls-10" transform="translate(504.96 528.71) rotate(-7.69)"><tspan x="0" y="0"> </tspan></text>
        <text class="cls-10" transform="translate(511.31 527.82) rotate(-4.02)"><tspan x="0" y="0">R</tspan></text>
        <text class="cls-10" transform="translate(523.93 527.1) rotate(1.51)"><tspan x="0" y="0">e</tspan></text>
        <text class="cls-10" transform="translate(532.52 527.4) rotate(7.67)"><tspan x="0" y="0">s</tspan></text>
        <text class="cls-10" transform="translate(541.03 528.7) rotate(14.81)"><tspan x="0" y="0">i</tspan></text>
        <text class="cls-10" transform="translate(546.93 530.36) rotate(22.34)"><tspan x="0" y="0">l</tspan></text>
        <text class="cls-10" transform="translate(551.92 532.47) rotate(31.43)"><tspan x="0" y="0">i</tspan></text>
        <text class="cls-10" transform="translate(556.7 535.39) rotate(43.72)"><tspan x="0" y="0">e</tspan></text>
        <text class="cls-10" transform="translate(562.16 540.77) rotate(55.82)"><tspan x="0" y="0">n</tspan></text>
        <text class="cls-10" transform="translate(568.7 551) rotate(58.49)"><tspan x="0" y="0">c</tspan></text>
        <text class="cls-10" transform="translate(575.24 561.2) rotate(48.51)"><tspan x="0" y="0">y</tspan></text>
      </g>
      <g>
        <g id="background" class="cls-15">
          <g>
            <path class="cls-1" d="M215.09,152.45c9.46-6.37,18.84-12.86,28.14-19.47,9.12-5.88,18.46-11.39,28.01-16.55,9.4-5.07,19-9.73,28.79-13.99,9.68-4.2,19.51-7.98,29.51-11.36,4.12-2.77,4.49-5.96,1.1-9.59-4.99-3.65-10.56-5.7-16.72-6.14-11.05-2.53-22.24-4.26-33.57-5.21-14.18-1.91-28.42-2.81-42.72-2.7-5.28,.41-10.56,.82-15.84,1.23,11,2,22.01,4.01,33.01,6.01-17.65-4.09-35.29-8.18-52.94-12.27,15.77,8.32,31.54,16.64,47.32,24.97-11.75-19.62-23.51-39.23-35.26-58.85l-5.29-1.59c-5.73,1.33-10.62,4.13-14.64,8.41-5.41,4.06-10.48,8.5-15.23,13.32-8.83,7.97-17.27,16.32-25.34,25.07-9.9,11-19.99,21.83-30.26,32.49-9.4,9.01-18.05,18.69-25.95,29.02-2.73,4.48-1.58,7.49,3.43,9.02,9.89,.71,19.39-1.12,28.53-5.49,17.42-5.85,34.59-12.38,51.5-19.59,9.73-2.81,18.05-7.76,24.96-14.86,1.83-4.76,3.67-9.53,5.5-14.29,1.58-5.66,3.16-11.31,4.74-16.97,.76-6.49,1.52-12.97,2.28-19.46-.1-4.27-.63-8.5-1.58-12.67-.33-3.32-.97-6.57-1.93-9.75-.66-3.93-2.82-7.07-6.46-9.42-1.47-4.93-4.28-7.26-8.43-7.01-4.75-.6-9.5-.33-14.25,.8-4.65-.26-7.96,1.85-9.94,6.33-4.12,9.86-7.29,20.04-9.49,30.52-2.75,10.35-4.5,20.86-5.26,31.52-.25,4.89,1.76,8.26,6.03,10.12,6.9,.86,13.8,1.73,20.7,2.59-1.69-.23-3.39-.46-5.08-.7,19.51,3.71,39.2,5.7,59.06,5.95,26.88,1.59,53.27-1.22,79.19-8.43-30.64-7.88-61.27-15.75-91.91-23.63-10.19,5.25-20.21,10.81-30.06,16.69-9.81,5.87-19.49,11.96-29.04,18.26-18.11,11.8-36.21,23.61-54.4,35.3-3.78,3.12-3.86,6.33-.26,9.65,7.78,4.35,16.23,6.25,25.35,5.7,16.34,1.17,32.7,1.61,49.08,1.33,9.08,1.05,17.62-.39,25.62-4.32Z"/>
            <path class="cls-1" d="M228.44,114.14c9.19-6.34,18.35-12.74,27.47-19.19,9.09-5.84,18.39-11.32,27.9-16.44,9.41-5.05,19.01-9.69,28.82-13.92,9.7-4.18,19.57-7.95,29.59-11.3,4.16-2.2,5.01-5.3,2.54-9.31-3.84-4.2-8.53-6.93-14.07-8.19-9.54-3.9-19.34-7.05-29.4-9.43-12.48-3.7-25.16-6.41-38.05-8.13l-16.35,.97c10.76,3.76,21.51,7.51,32.27,11.27-11.31-5.77-22.63-11.55-33.94-17.32l6.44,6.27c-2.99-3.23-5.97-6.46-8.96-9.69-2.48-2.23-5.12-2.65-7.9-1.26-5,.82-9.14,3.45-12.4,7.87-12.09,10.21-24.17,20.42-36.26,30.63l14.54-10.57c-9.57,6.32-19.14,12.64-28.72,18.96-10.91,6.26-21.74,12.63-32.51,19.12-4.37,2.33-8.47,5.06-12.3,8.19-5.74,3.88-10.9,8.45-15.47,13.71-4.73,2.46-6.79,6.17-6.18,11.13,2.84,4.11,6.85,5.51,12.02,4.21,11.99-2.71,23.69-6.38,35.09-11.02,11.6-4.11,22.79-9.14,33.55-15.09,7.82-7.13,15.77-14.11,23.56-21.27,3.82-3.32,7.42-6.85,10.82-10.6,6-5.79,11.28-12.18,15.87-19.19-16.83,11.47-33.67,22.94-50.5,34.41,16.53-4.13,33.07-8.27,49.6-12.4,14.23,2.01,28.53,3.06,42.89,3.16,6.61,.64,13.22,.77,19.83,.39,14.85-.53,29.52-2.8,44-6.82-29.11-11.28-58.22-22.55-87.33-33.83-11.02,4.87-21.85,10.13-32.5,15.77-10.51,5.58-20.85,11.45-31.04,17.6-18.47,11.03-36.75,22.38-54.92,33.9-4.06,2.5-4.67,5.66-1.81,9.48,6.57,5.46,14.23,8.62,22.96,9.49,15.2,3.64,30.54,6.58,46.02,8.8,8.44,2.41,16.72,2.29,24.84-.35Z"/>
            <path class="cls-1" d="M248.4,141.05c2.33-3.67,4.65-7.34,6.98-11.01l-3.75,4.65c8.87-6.35,18.03-12.26,27.46-17.73,6.93-4.14,14.01-7.99,21.26-11.54,7.07-3.71,14.28-7.12,21.64-10.22,9.67-4.16,19.5-7.92,29.48-11.27,5.14-2.49,5.61-5.68,1.41-9.55-6.36-4.06-13.29-6.5-20.79-7.3-13.77-3.3-27.7-5.8-41.77-7.52-17.62-2.88-35.35-4.76-53.18-5.63-4.62,.04-9.24,.08-13.86,.13,13.63,3.12,27.25,6.24,40.88,9.36-19.46-5.79-38.92-11.58-58.39-17.37,21.21,12.95,42.42,25.9,63.63,38.85-12.79-21.69-25.59-43.38-38.38-65.07l-5.25-1.54c-5.54,1.31-10.2,4.07-13.99,8.29-5.12,3.99-9.91,8.36-14.35,13.11-8.31,7.84-16.23,16.06-23.76,24.66-10.86,13.68-21.99,27.15-33.36,40.4,1.92-2.26,3.84-4.52,5.76-6.78-8.91,9.24-17.18,19.01-24.84,29.3-2.41,4.35-1.27,7.36,3.41,9.03,9.08,1.01,17.84-.52,26.28-4.57,15.98-5.26,31.71-11.2,47.18-17.82,9.01-2.54,16.59-7.19,22.73-13.94,5.12-10.29,9.13-21,12.02-32.13,2.87-8.73,3.64-17.49,2.32-26.29-.26-7.5-1.64-14.74-4.14-21.72C225.21,4.68,214.37-1.79,198.5,.42c-4.76,.19-7.92,2.67-9.49,7.45-3.44,10.64-5.91,21.51-7.39,32.61-2.04,11.01-3.07,22.11-3.09,33.3,0,5.03,2.25,8.37,6.71,10.03,23.99,3.09,47.98,6.17,71.98,9.26,8.27,.45,16.55,.44,24.84-.02,7.3,.39,14.56,.13,21.77-.79,16.04-1.64,31.92-4.42,47.64-8.33-41.78-9.4-83.56-18.8-125.34-28.21-10.38,5.88-20.74,11.78-30.9,18.05-12.4,7.66-24.55,15.73-36.74,23.73-8.99,5.9-18.13,11.58-27.19,17.38-3.42,1.27-6.1,3.36-8.04,6.27-3.09,3.79-6.06,7.67-8.91,11.65,2.28,5.75,6.79,8.76,13.54,9.05,17.5,2.81,35.12,4.63,52.84,5.43,17.69,1.37,35.39,1.74,53.11,1.09,6.74,.54,11.59-1.9,14.55-7.33Z"/>
            <path class="cls-1" d="M277.06,174.74c6.19-5.82,12.84-11.02,19.97-15.6,9.04-5.9,18.3-11.43,27.77-16.6,9.24-5.01,18.68-9.61,28.33-13.78,9.49-4.1,19.15-7.79,28.96-11.06,2.2-1.07,4.4-2.13,6.6-3.2,.77-1.59,1.54-3.17,2.3-4.76l-2.03-4.88c-3.84-3.11-8.21-4.63-13.13-4.56-5.39-1.02-10.83-1.53-16.33-1.55-6.4-.54-12.82-.72-19.24-.54-5.49-.29-10.95-.08-16.39,.63-4.9-.34-9.36,.93-13.36,3.82-2.89,5.99-6.45,11.57-10.68,16.75,4.73-1.4,9.46-2.8,14.19-4.19-7.93-1.06-15.76-.91-23.49,.46-13.7,2.18-27.25,5.16-40.65,8.93l4.24-.84c-21.5,3.64-43.1,6.56-64.79,8.75-11.9,1.14-23.44,3.79-34.62,7.96-5.77,2.49-11.48,5.13-17.12,7.89-8.01,4.29-14.89,9.95-20.62,16.97-1.94,2.41-2.75,5.18-2.42,8.31-.07,3.14,.96,5.84,3.1,8.08,3.32,1.54,6.82,2.12,10.5,1.74,3.7,.08,7.14-.79,10.31-2.61,2.79-4.9,6.57-8.79,11.33-11.67,5.17-4.29,10.91-7.69,17.21-10.2l-3.43,1.5c10.12-4.16,20.64-6.78,31.56-7.84,20.23-2.1,40.37-4.83,60.43-8.18,12.95-2.53,25.83-5.37,38.64-8.53,8.7-3.55,16.79-8.28,24.25-14.2l-16.22,2.5c11.23,2.74,22.46,3.56,33.71,2.45,15.65-1.15,31.03-4.15,46.15-9-23.86-5.01-47.72-10.03-71.58-15.04-16.07,8.25-31.77,17.03-46.98,26.79-8.25,5.29-16.39,10.74-24.55,16.16-6.42,4.27-12.85,8.53-19.28,12.79-6.16,4.08-12.12,8.43-17.89,13.04-2.47,3.44-2.2,6.64,.81,9.62,5.9,3.54,12.36,4.67,19.39,3.39,12.23-.31,24.4-1.34,36.51-3.09,7.14,.08,13.32-2.12,18.54-6.6Z"/>
            <path class="cls-1" d="M276.94,147.17c5.37-8.85,12.76-15.51,22.17-19.98,9.11-5.83,18.44-11.27,28-16.32,9.37-4.93,18.93-9.44,28.69-13.53,9.63-4.03,19.42-7.66,29.36-10.87,4.37-2.58,4.86-5.76,1.48-9.54-7.72-5.41-16.4-8.44-26.02-9.1-17.08-3.38-34.28-6.04-51.58-7.99-9.37-2.28-18.56-2.01-27.55,.8-1.65,1-3.31,1.97-4.98,2.93-7.78,4.31-14.27,10.34-19.48,18.08,5-3.4,10-6.8,15.01-10.2-10.91,5.94-21.83,11.88-32.74,17.83,3.14-1.28,6.27-2.55,9.41-3.83-17.32,7.2-35.01,13.31-53.06,18.34-6.64,2-13.23,4.14-19.78,6.41-6.2,2.04-12.27,4.42-18.21,7.14-8.55,3.9-16.19,9.12-22.92,15.67-3.01,2.34-4.15,5.37-3.44,9.1,.83,3.7,3.1,6.02,6.79,6.97,6.66,.37,13.23-.26,19.73-1.89,6.6-1.1,12.88-3.15,18.84-6.15,3.1-2.19,6.2-4.37,9.29-6.56,3.81-1.93,7.61-3.85,11.42-5.78,4.47-1.76,8.93-3.52,13.4-5.27,6.21-2.11,12.38-4.31,18.53-6.6,4.67-1.43,9.21-3.17,13.63-5.23,4.27-1.86,8.5-3.83,12.67-5.91,4.39-1.65,8.52-3.77,12.39-6.35,5.47-3.25,10.51-7.11,15.11-11.59l-15.01,10.2,15.26-6.05-3.94,1.18c11.08,1.24,22.2,1.77,33.36,1.59,21.28,1.5,42.33-.57,63.16-6.18-31.48-9.27-62.96-18.54-94.44-27.81-10.44,5.6-20.84,11.21-31.03,17.25-12.46,7.39-24.64,15.24-36.81,23.08-8.98,5.78-18.06,11.39-27.12,17.03-3.54,1.04-6.11,3.09-7.7,6.15-2.55,3.77-5.05,7.58-7.49,11.42,1.39,5.27,5.02,8.24,10.87,8.92,9.99,1.99,20.06,3.27,30.23,3.84,12.61,1.26,25.26,1.98,37.94,2.16,9.29,1.41,18.15,.3,26.58-3.32Z"/>
            <path class="cls-1" d="M186.95,105.65c16.78-1.03,33.56-2.06,50.33-3.09l4.57-.67c4.48-3.25,8.95-6.5,13.43-9.76,5.63-5.21,11.86-9.51,18.7-12.88,9.22-5.14,18.71-9.61,28.45-13.68,4.74-2.12,9.56-4,14.48-5.66,7.21-2.75,14.53-5.16,21.97-7.24,2.69-1.53,4.45-3.81,5.3-6.84,1.23-2.89,1.27-5.77,.13-8.65-2.48-2.65-5.49-4.47-9.02-5.47-3.38-1.43-6.87-1.88-10.46-1.36-20.53,13.71-43.33,21.5-68.41,23.39l3.37-.66c-30.6,5.16-61.4,8.1-92.42,8.8l8.18,1.01c-15.68-3.57-18.3-5.83-31.66-3.7-8.82,1.4-17.48,3.73-26.08,6.11-3.7,.75-7.27,1.91-10.7,3.46-5.58,2.22-11.13,4.52-16.65,6.9l-10.89,6.71c-5.95,3.55-11.26,7.91-15.91,13.1-2.35,2.95-2.76,6.15-1.23,9.58,1.6,3.4,4.28,5.19,8.05,5.34,6.43-1.05,12.56-3.05,18.39-6.01,6.06-2.47,11.58-5.79,16.58-9.97,2.46-1.93,4.93-3.86,7.39-5.79-2.1,1.42-4.21,2.83-6.31,4.25l8.76-5.11-8.96,3.74c6.43-2.61,12.85-5.23,19.28-7.84l-7.99,3.21,13.46-3.73-7.09,1.79c11.37-2.38,22.77-4.57,34.2-6.58,11.37-4.82,23.14-7.84,35.32-9.06,17.56-2.88,35.26-4.47,53.11-4.77,31.13-1.12,61.89-5.08,92.27-11.88-4.68-7.44-9.37-14.87-14.05-22.31-10.33,3.03-20.51,6.51-30.54,10.44-7.64,2.95-15.13,6.23-22.47,9.83-7.48,3.33-14.7,7.16-21.67,11.5-7.7,7.35-16.12,13.77-25.26,19.25l4.57-.67c-17.41,.92-34.83,1.84-52.24,2.76-3.55-.65-6.29,.47-8.23,3.37-1.71,2.92-2.38,6.07-2.01,9.44,.59,3.44,2.63,5.58,6.14,6.43,4.46,1.69,9.07,2.67,13.84,2.94Z"/>
            <path class="cls-1" d="M185.12,145.97c13.15-.57,24.99-4.18,35.51-10.84,5.01-2.89,9.64-6.31,13.9-10.29l-5.08,3.24c13.68-8.42,27.41-16.8,41.92-23.74,4.79-2.2,9.57-4.41,14.36-6.61,9.58-4.14,19.31-7.86,29.22-11.15,4.25-.7,6.86-3.09,7.82-7.17,.23-4.19-1.6-7.21-5.49-9.07-8.02-2.89-16.28-4.81-24.78-5.75-8.42-1.49-16.88-1.97-25.39-1.44-7.16,2.68-14.54,4.37-22.15,5.07l3.77,.44c-6.73-1.85-13.4-4.11-20.31-5.13-2.3-.77-4.48-.39-6.54,1.12-9.29,3.49-18.51,7.14-27.67,10.95,4.74-1.79,9.49-3.58,14.23-5.38-15.45,5.62-30.9,11.25-46.35,16.87,5.54-1.94,11.07-3.89,16.61-5.83-16.37,5.17-32.56,10.83-48.57,16.99-9.83,3.17-19.29,7.2-28.39,12.09-3.93,2.58-7.86,5.16-11.78,7.74-6.11,4.17-11.71,8.97-16.79,14.38-2.62,4.03-1.8,7.13,2.48,9.33,8.41,2.04,16.79,1.54,25.13-1.5,15.49-3.37,30.8-7.44,45.92-12.21,8.75-1.51,16.27-5.24,22.56-11.18l7.3-5.73-6.79,5.06c6-4.46,12.21-8.58,18.65-12.38,8.08-4.75,16.23-9.39,24.43-13.92-14.94,5.3-29.87,10.6-44.81,15.91,10.76-2.51,21.52-5.01,32.28-7.52,11.41-1.77,22.8-3.66,34.17-5.66,8.54-2.16,17.2-2.33,25.97-.51,18.42,2.41,36.58,.55,54.5-5.59-15.95-7.81-31.89-15.62-47.84-23.43-10.26,4.16-20.35,8.72-30.25,13.68-9.99,5.02-19.78,10.41-29.36,16.16-11.07,6.64-21.94,13.59-32.83,20.54l5.08-3.24c-5.69,3.62-11.37,7.23-17.06,10.85l5.21-3.14c-11.16,2.85-22.33,5.69-33.49,8.54-4.24,1.01-6.68,3.6-7.34,7.78,.15,4.23,2.28,7.1,6.37,8.6,8.42,2.23,16.99,3.47,25.71,3.71,8.69,.79,17.35,.58,25.97-.64Z"/>
            <path class="cls-1" d="M225.23,190.7c14.1-4.58,26.85-11.5,38.24-20.77,8.95-5.92,18.12-11.47,27.5-16.67,9.14-5.03,18.49-9.62,28.05-13.77,9.4-4.08,18.96-7.73,28.68-10.97,4.06-1.36,6.24-4.12,6.54-8.28-.4-4.15-2.64-6.86-6.72-8.13-8.26-1.63-16.61-2.27-25.04-1.9-8.44-.18-16.77,.64-24.99,2.45-9.46,5.48-19.06,10.72-28.8,15.7l14.59,1.9c-6.25-1.79-12.55-3.36-18.9-4.71-2.44-.74-4.92-.72-7.45,.06-14.89,3.19-29.88,5.82-44.97,7.9-12.39,1.78-24.76,3.75-37.1,5.89-8.8,1.79-17.6,3.58-26.39,5.37-10.76,2.28-21.1,5.78-31.02,10.5-3.91,2.38-7.83,4.76-11.74,7.13-4.79,3.92-9.4,8.03-13.83,12.35-1.75,3.35-1.51,6.56,.71,9.62,3.92,3.54,8.62,4.87,14.09,3.98,8.86,.07,17.66-.58,26.42-1.95,5.54,.07,9.99-1.93,13.35-6.01,2.2-2.07,4.4-4.14,6.59-6.22-1.39,1.16-2.77,2.33-4.16,3.49,6.22-4.65,13-8.27,20.34-10.84,10.23-3.63,20.65-6.59,31.27-8.89-2.26,.5-4.51,1-6.77,1.5,7.22-1.45,14.45-2.9,21.67-4.34,12.27-2.06,24.46-4.45,36.59-7.17,3.92-.61,7.75-1.52,11.52-2.72,8.37-2.39,16.34-5.85,23.91-10.37-3.3-.25-6.6-.5-9.9-.75,6.44,1.55,12.93,2.88,19.45,4,17.31,.91,34.23-2.28,50.73-9.57-16.74-5.28-33.47-10.57-50.21-15.85-9.6,4.23-19.03,8.82-28.29,13.77-9.42,5.05-18.64,10.44-27.66,16.18-9.08,5.82-18.06,11.79-26.94,17.91-12.35,9.38-26.15,15.98-41.4,19.81-3.91,1.77-5.81,4.75-5.68,8.93,.85,4.1,3.39,6.55,7.61,7.36,8.46,.74,16.89,.47,25.3-.81,8.48-.73,16.74-2.44,24.79-5.13Z"/>
            <path class="cls-1" d="M267.62,110.58c8.04-7.27,16.65-13.79,25.83-19.55,9.08-5.83,18.39-11.27,27.92-16.32,9.4-4.97,19.01-9.51,28.82-13.62,9.7-4.06,19.57-7.7,29.58-10.91l3.59-3.9-.57-5.27-5.18-5.27c-6.91-3.7-14.1-6.73-21.55-9.11-6.04-2.37-12.19-4.4-18.45-6.08-5.22-1.87-10.56-3.25-16.03-4.14-3.43-1.5-6.88-1.76-10.37-.78-3.34-.25-5.76,1.24-7.24,4.47-1.72,4.7-3.44,9.39-5.16,14.09l1.83-4.27c-4.24,2.7-8.48,5.4-12.72,8.1,1.48-.68,2.97-1.36,4.45-2.05-16.04,8.51-32.87,14.63-50.49,18.36-11.81,3.47-23.85,5.89-36.1,7.24l-17,3.15c-5.05,.74-10,1.9-14.86,3.46-9.58,2.63-19.9,5.53-28.67,10.17-3.88,2.28-7.75,4.56-11.63,6.84-5.74,3.25-10.91,7.28-15.5,12.09-1.97,2.84-2.3,5.87-1,9.1,1.09,3.31,3.3,5.41,6.63,6.32,5.24-.09,10.28-1.16,15.14-3.21,5.03-1.56,9.58-3.99,13.65-7.29,3.01-2.27,6.02-4.54,9.02-6.8l-5.37,3.38c7.11-4.64,14.7-8.28,22.78-10.92l-7.46,2.53c5.15-1.42,10.31-2.83,15.46-4.25l-7.16,1.34c6.27-1.12,12.54-2.24,18.81-3.36,13.53-1.44,26.91-3.76,40.13-6.96,11.21-1.84,22.15-4.73,32.8-8.67,14-4.05,27.68-8.98,41.06-14.78l-4.85,.48c8.58,1.45,17.14,1.75,25.68,.9,13.03-1.12,26.04-2.38,39.04-3.76-21.64-11.71-43.27-23.42-64.91-35.12-11.25,4.54-22.3,9.51-33.16,14.9-10.7,5.33-21.21,10.99-31.55,16.99-9.71,5.69-19.4,11.4-29.08,17.14-8.48,4.63-16.5,9.96-24.05,15.98-3.73,2.38-4.51,5.51-2.33,9.36,5.15,5.47,11.55,8.79,19.23,9.95,12.94,3.97,26.06,7.24,39.36,9.8,7.32,2.57,14.54,2.65,21.65,.23Z"/>
            <path class="cls-1" d="M198.01,176.92c16.55-2.65,30.9-9.36,43.05-20.14,8.96-5.85,18.12-11.35,27.48-16.52,9.17-5.04,18.55-9.65,28.15-13.83,9.43-4.1,19.02-7.77,28.77-11.03,4.02-1.21,6.26-3.85,6.73-7.93-.13-4.11-2.14-6.93-6.05-8.46-7.86-2.05-15.87-3.11-24.01-3.17-8.12-.61-16.19-.22-24.19,1.18-10.48,3.65-20.37,8.54-29.67,14.66,4.19-1.19,8.37-2.39,12.56-3.58-7.05-2.52-14.15-3.38-21.29-2.57-7.57,.56-14.95,2.29-22.13,5.19-22.05,5.24-44.26,9.76-66.3,15-7.85,1.52-15.57,3.55-23.14,6.1-7.77,2.09-15.25,4.97-22.43,8.67l-11.78,7.29c-6.09,3.35-11.46,7.65-16.11,12.9-2.6,3.56-2.2,6.76,1.19,9.58,6.7,3.26,13.82,4.06,21.34,2.4,13.39-.93,26.69-2.59,39.9-4.96,7.7-.23,14.4-2.74,20.1-7.55,4.44-4.2,9.32-7.83,14.62-10.89l-5.98,3.76c7.34-4.22,14.96-7.84,22.87-10.85,10.58-3.98,21.2-7.85,31.87-11.58l-8.62,2.91c5.66-1.83,11.32-3.66,16.98-5.49-6.49,1.58-12.97,3.16-19.46,4.74,9.22-.05,17.95-1.81,26.19-5.29,7.46-2.92,14.82-6.11,22.06-9.57l-12.56,3.58c12.28,2.58,24.53,3.2,36.75,1.88,13.73-1.23,27.26-3.88,40.57-7.93-15.84-6.13-31.69-12.26-47.53-18.39-9.79,4.15-19.4,8.68-28.84,13.58-9.59,4.99-18.98,10.34-28.17,16.05-9.11,5.67-18.11,11.5-27,17.49-13.11,10.43-28.23,16.77-45.37,19.03-3.91,1.57-5.91,4.42-5.99,8.54,.53,4.09,2.83,6.7,6.88,7.84,8.09,1.29,16.22,1.57,24.4,.85,8.21-.17,16.26-1.33,24.16-3.49Z"/>
            <path class="cls-1" d="M244.09,95.71c9.06-1.67,17.76-4.35,26.09-8.04,5.66-2.22,10.68-5.58,15.05-10.09l13.93-8.5c9.33-5.44,18.9-10.41,28.72-14.91l-4.83,2.1,19.54-8.4-4.83,1.99c9.85-4,19.86-7.55,30.03-10.63-12.56-7.84-25.12-15.68-37.67-23.52-2.64,4-5.28,8-7.92,12l7.96-5.45c-17.99,9.08-36.9,14.71-56.73,16.89-19.42,3.82-39.02,6.18-58.83,7.07l2.29-.11-29.07,1.26c-6.51,.62-13.01,1.24-19.52,1.86l-16.31,3.43c-8.74,1.79-17.01,4.76-24.81,8.9-2.77,1.29-5.5,2.65-8.2,4.07-2.71,1.26-5.2,2.87-7.48,4.84-2.48,1.41-4.71,3.12-6.7,5.13-3.83,3.58-7.57,7.24-11.24,10.98-1,2.96-.77,5.85,.69,8.66,1.1,2.98,3.07,5.09,5.93,6.35,3.78,.17,7.37-.62,10.77-2.37,3.59-1.33,6.59-3.44,9.01-6.35l8.4-8.27-3.3,3.11,8.86-6.55-4.86,2.51c8.77-4.92,18.05-8.57,27.84-10.96l-3.99,1.29c14.16-3.6,28.5-6.23,43.02-7.89,16.15-1.71,32.29-3.52,48.41-5.45,6.9-.4,13.74-1.25,20.5-2.55,22.73-4.55,45.35-9.55,67.88-15l-3.66,.63c12.9-1.51,25.8-3.01,38.7-4.52,3.76-.37,6.34-2.29,7.74-5.78,1.33-3.52,.74-6.69-1.77-9.5-5.24-3.89-10.96-6.91-17.16-9.04-6-2.63-12.25-4.3-18.74-4.98-11.22,3.49-22.26,7.49-33.11,11.99-7.08,2.86-14.06,5.94-20.95,9.25-20.01,9.58-38.79,21.3-57.83,32.62l4.98-2.14c-9.06,1.5-18.13,3.01-27.19,4.51-4.15,.19-6.95,2.19-8.4,6-.94,3.96,.25,7.19,3.58,9.68,6.92,3.93,14.23,6.94,21.94,9.02,7.54,2.61,15.28,4.23,23.22,4.86Z"/>
            <path class="cls-1" d="M169.78,125.16c18.5-1.78,36.99-3.56,55.49-5.35l4.12-1.07c4.61-3.23,9.22-6.45,13.83-9.68,5.65-5.09,11.86-9.31,18.64-12.67,9.21-5.12,18.67-9.56,28.4-13.6,4.73-2.1,9.56-3.97,14.47-5.61,7.21-2.72,14.53-5.11,21.96-7.17,2.42-1.84,3.91-4.28,4.49-7.31,.98-2.92,.86-5.78-.34-8.57-2.39-2.35-5.25-3.85-8.57-4.49-3.22-1.07-6.44-1.16-9.67-.28-20.87,11.48-43.29,18.28-67.25,20.4-28.31,4.95-56.83,7.31-85.56,7.08l-6.32-2.16c-5-.84-9.98-.46-14.96,1.16-9.3,1.19-18.41,3.17-27.33,5.97-5.36,1.49-10.68,3.14-15.96,4.93-6.71,2.6-13.22,5.63-19.52,9.09-7.86,4.11-14.74,9.48-20.64,16.1-3.08,2.72-4.02,6-2.81,9.85,1.66,3.68,4.55,5.51,8.66,5.48,7.72-1.1,15.18-3.17,22.39-6.22,7.4-2.53,14.35-5.96,20.84-10.28,4.07-3.93,8.6-7.21,13.6-9.84l-7.29,3.77,9.23-4.04c-3.2,1.03-6.39,2.05-9.59,3.08,4.23-1.23,8.46-2.46,12.69-3.69-2.77,.53-5.55,1.07-8.32,1.6,11.74-2.52,23.56-4.51,35.48-5.97,13.06-3.63,26.27-6.62,39.61-8.96,31.07-1.89,62.08-4.49,93.04-7.8,14.84-2.24,29.54-5.22,44.12-8.92-4.7-6.88-9.4-13.76-14.1-20.64-10.24,3.01-20.32,6.48-30.25,10.38-7.58,2.92-15,6.19-22.27,9.79-7.41,3.33-14.56,7.14-21.47,11.44-7.97,7.2-16.6,13.49-25.9,18.88l4.12-1.07c-18.04,1.86-36.08,3.73-54.12,5.59-2.89,.11-4.79,1.55-5.68,4.3-1.15,3.09-1.58,6.28-1.27,9.57,.14,2.89,1.59,4.77,4.36,5.64,3.12,1.15,6.34,1.58,9.66,1.29Z"/>
          </g>
        </g>
        <polygon class="cls-6" points="201.91 88.01 198.82 90.52 199.13 94.48 195.79 92.32 192.12 93.84 193.15 90 190.56 86.98 194.53 86.76 196.61 83.37 198.04 87.08 201.91 88.01"/>
        <polygon class="cls-2" points="221.25 52.86 218.17 55.37 218.48 59.33 215.14 57.17 211.47 58.7 212.49 54.85 209.91 51.83 213.88 51.62 215.96 48.23 217.39 51.94 221.25 52.86"/>
        <polygon class="cls-2" points="217.89 113.68 213.07 117.6 213.56 123.79 208.35 120.42 202.61 122.8 204.21 116.79 200.17 112.07 206.38 111.74 209.62 106.44 211.85 112.24 217.89 113.68"/>
        <polygon class="cls-8" points="260.24 89.52 257.77 91.53 258.03 94.7 255.36 92.97 252.42 94.19 253.24 91.11 251.17 88.7 254.35 88.53 256.01 85.81 257.15 88.78 260.24 89.52"/>
        <polygon class="cls-6" points="247.38 143.78 243.52 146.91 243.91 151.86 239.74 149.16 235.15 151.07 236.43 146.26 233.2 142.49 238.16 142.22 240.76 137.98 242.55 142.62 247.38 143.78"/>
        <polygon class="cls-5" points="160.15 99.33 156.29 102.46 156.68 107.42 152.51 104.72 147.92 106.62 149.2 101.82 145.97 98.04 150.93 97.78 153.53 93.54 155.32 98.17 160.15 99.33"/>
        <polygon class="cls-8" points="180.33 137.02 171.56 141.63 172 147.79 163.05 145.11 152.78 148.3 156.01 142.04 149.22 137.84 160.17 136.65 166.25 130.87 169.78 136.4 180.33 137.02"/>
      </g>
      <g id="spinningtop">
        <path id="pivot_point" data-name="pivot point" class="cls-6" d="M437.85,458.74c-2.31-1.52,1.07-35.91,4.37-43.11,7.3,6.61,14.07,8.54,20.96,8.64-1.95,4.96-23.02,35.99-25.33,34.47Z"/>
        <path id="bottom_base" data-name="bottom base" class="cls-2" d="M483.42,417.07c-8.97-1.7-16.19-4.75-25.86-8.14-10.11-3.54-16.07-7.32-24.97-12.96-1.45,8.41,8.42,21.75,18.98,26.06,15.33,6.25,30.11-2.33,31.84-4.97Z"/>
        <path id="mid_lower_body" data-name="mid lower body" class="cls-5" d="M570.9,419.32c.62,.06-32.52-.4-106.97-24.44-57.89-26.59-68.24-40.96-94.55-60.45-3.59,5.46,35.43,53.22,88.45,75.28,56.15,21.48,109.48,15.07,113.07,9.61Z"/>
        <path id="top_lower_body" data-name="top lower body" class="cls-2" d="M652.31,414.93c-13.87,6.48-132.03-13.63-180.3-34.96-52.81-22.28-127.87-58.07-159.91-112.07-.13,26.09,104.48,110.17,150.58,128.43,42.57,16.86,144.28,33.88,189.64,18.6Z"/>
        <path id="lower_body" data-name="lower body" class="cls-5" d="M676.22,399.71c11.54-38.86-56.36-93.29-147.37-136.83-91.67-36.76-203.69-54.43-217.95-14-14.26,40.42,100.74,114.51,197.07,143.79,94.53,28.74,155.38,33.15,168.25,7.04Z"/>
        <path id="reflection_main_base" data-name="reflection main base" class="cls-16" d="M562.85,397.09c-8.17-8.74-148.21-66.66-162.77-64.24,4.82,10.82,46.67,28.32,76.68,43.28,.31,.15,77.89,27.98,86.09,20.96Z"/>
        <path id="mid_body" data-name="mid body" class="cls-2" d="M642.21,356.41c9.59-29.34-88.93-84.84-127.02-99.45-75.88-26.2-137.27-37.45-150.27-14.65-10.96,19.22,51.29,64.22,99.37,87.04,72.57,34.44,162.8,53.86,177.91,27.07Z"/>
        <path id="top_body" data-name="top body" class="cls-4" d="M587.23,314.09c5.43-13.72-29.44-47.89-61.4-63.48-31.63-15.42-85.77-12.78-93.99-.29-8.22,12.49,38.15,41.18,71.15,54.41,29.35,11.76,78.74,23.26,84.24,9.36Z"/>
        <path id="top_base" data-name="top base" class="cls-2" d="M582.35,277.74c12.52-19.01-19.85-42.61-47.78-52.71-32.5-11.76-58.76-18.52-71.51-.26-13.48,19.32,22.18,44.47,54.48,56.76,28.51,10.85,52.29,15.22,64.81-3.79Z"/>
        <path id="reflection_top_base" data-name="reflection top base" class="cls-12" d="M552.11,271.16c2.58-2.7-18.35-13.16-26.96-15.95-8.06-2.61-31.55-12.65-33.66-6.31-1.48,4.43,18.45,14.72,26.14,18.29,7.45,3.46,29.84,8.84,34.48,3.97Z"/>
        <path id="cap" class="cls-5" d="M570.37,254.36c2.27-3.44-5.2-13.99-9.75-16.38-.52-9.88-11.87-20-22.28-24.15-9.86-3.93-26.6-5.92-35.4,1.43-11.8,1.16-15.05,.75-17.81,3.89-5.1,5.81,19.69,21.33,42.48,31.21,22.42,9.72,38.49,10.46,42.74,4.01Z"/>
        <path id="mid_handle" data-name="mid handle" class="cls-6" d="M555.16,199.24c-2.68,9.67,.62,13.28-4.49,28.83-.91,2.78-17.69-3.09-19-3.96s-14.49-8.5-13.49-10.41c2.72-5.23,14.16-15.35,18.83-22.99,2.6-4.25,5.06-9.19,6.17-11.97,.34-.85,5.09-.34,8.42,2.39,3.23-.12,7.93,3.42,8.04,5.02,.2,2.9-3.46,9.42-4.47,13.08Z"/>
        <path id="reflection_mid" data-name="reflection mid" class="cls-13" d="M546.04,217.1c-3.93,2.69-8.1,.86-8.23,.83-2.4-.74-7.23-4.52-6.41-6.5,.1-.24,12.67-18.62,14.64-17.49,1.97,1.13,2.86,17.73,0,23.17Z"/>
        <polygon id="knobtube" class="cls-7" points="553.84 181.53 549.37 179.85 560.44 153.46 565 155.56 553.84 181.53"/>
        <path id="handle" class="cls-6" d="M589.61,132.96c-11.83,6.35-15.84,20.1-18.26,23.63-1.02,1.49-7.74-1.49-8.88-2.24-1.48-.97-9.36-3.47-8.15-5.81,3.92-7.59,6.14-13.16,3.4-28.83,3.62-15.62,21.23-38.52,32.72-34.65,17.39,5.87,3.72,44.41-.83,47.9Z"/>
        <path id="reflection_top" data-name="reflection top" class="cls-14" d="M589.64,108.57c-3.76,7.07-6.81,12.26-10.24,10.91-5.32-2.11-4.96-11.4-1.7-19.31s7.9-12.27,11.79-10.79c4.38,1.67,4.17,11.63,.15,19.19Z"/>
      </g>
    </g>
  </g>
</svg>