<?xml version="1.0" encoding="UTF-8"?>
<svg id="Layer_2" data-name="Layer 2" xmlns="http://www.w3.org/2000/svg" viewBox="0 0 312.59 248.22">
  <defs>
    <style>
      .cls-1 {
        fill: #fff;
        stroke: #231f20;
      }

      .cls-1, .cls-2 {
        stroke-miterlimit: 10;
        stroke-width: 4px;
      }

      .cls-2 {
        fill: #231f20;
        stroke: #fff;
      }
    </style>
  </defs>
  <g id="Layer_1-2" data-name="Layer 1">
    <g>
      <path class="cls-2" d="M154.19,160.06c17.52-9.16,10.38-32.29,24.67-59.19,10.24-19.28,26.37-28.41,54.09-44.1,17.05-9.65,28.4-15.9,35.28-11.17,9.76,6.72,4.92,31.75-1.02,46.71-2.03,5.12-13.47,32.43-41.76,46.71-19.01,9.6-37.57,9.24-66.2,24.91-2.39,1.31-4.82,2.79-5.74,3.35,0,0-.19,.12-.37,.23-5.4,3.34-36.67,27.56-36.67,27.56-13.95,10.81-28.84,13.79-37.69,15.57-27.59,5.54-60.06-1.25-61.11-10.38-1.06-9.19,29.67-21.12,47.87-25.95,15.45-4.1,43.94-8.94,74.35-11.42,7.18-.58,10.22-.7,14.29-2.82Z"/>
      <path class="cls-2" d="M159.25,164.83c28.54-2.36,27.78-20.83,69.26-31.57,34.65-8.98,78.77-7.37,81.89,4.23,4.19,15.57-62.08,61.7-113.16,46.73-19.35-5.67-18.25-14.96-37.99-19.38-39.94-8.95-57.43,24.31-96.76,19.35C27.93,179.83-1.81,148.7,2.4,136.31c3.66-10.79,33.83-9.57,43.8-9.17,58.32,2.37,71.71,41.1,113.06,37.69Z"/>
      <path class="cls-2" d="M164.55,167.79c-19.2-16.37-12.06-34.79-24.67-58.08-10.24-18.92-26.37-27.88-54.09-43.28-17.05-9.47-28.4-15.6-35.28-10.96-9.76,6.59-4.92,31.16,1.02,45.83,2.03,5.03,13.47,31.82,41.76,45.83,19.01,9.42,37.57,9.07,66.2,24.44,1.72,.92,3.17,1.8,6.11,3.51,29.82,17.38,34.68,23.65,48.65,30.48,9.95,4.86,22.55,11.02,38.7,10.19,21.66-1.12,43.98-14.51,42.78-23.43-1.29-9.57-29.75-14.36-45.83-15.28-32.39-1.85-49.26,10-73.46-1.67-6.71-3.24-11-6.84-11.89-7.6Z"/>
      <path class="cls-2" d="M189.8,92.53c-1.71,33.8-18.51,74.98-36.67,74.96-18.2-.02-34.71-41.46-36.67-74.96C114.04,50.88,132.98,2.25,152.12,2c19.2-.25,39.83,48.22,37.69,90.53Z"/>
      <g>
        <path class="cls-1" d="M144.87,173.95c-6.84,18.45-23.8,31.99-44.13,33.91,0-.17,0-.35,0-.53h0c7.87-17.62,24.37-30.54,44.13-33.38Z"/>
        <path class="cls-1" d="M205.48,208.1c-22.71,0-42.04-14.45-49.3-34.66,22.2,1.17,41.06,14.97,49.5,34.36l-.2,.3Z"/>
        <path class="cls-1" d="M113.45,215.36c-6.19,1.54-11.77,1.17-15.66,.53,.04-.17,.08-.33,.13-.49,.31-.03,.62-.03,.93-.03h14.6Z"/>
        <path class="cls-1" d="M208.4,215.52c-3.96,.47-9.43,.68-15.73-.38h15.63c.03,.13,.07,.25,.1,.38Z"/>
        <path class="cls-1" d="M226.64,230.67c.01,1.76-.41,3.53-.43,3.62-.68,2.83-2.14,5.36-4.14,7.36-2.82,2.82-6.7,4.57-10.98,4.57H95.12c-.31,0-.63,0-.93-.03-8.12-.48-14.61-7.27-14.61-15.51,0-4.27,1.75-8.16,4.57-10.97,2.61-2.61,6.14-4.3,10.05-4.53,.31-.03,.62-.03,.93-.03,6.26,.22,16.48-.38,27.13-5.78,6.91-3.5,11.39-7.7,14.21-10.37,9.15-8.7,12.9-17.17,13.64-18.87,.41-.95,.72-1.75,.93-2.32,2.58,5.77,7.43,14.43,16.24,22.28,3.99,3.55,9.32,8.29,17.64,11.14,5.88,2.01,8.87,1.58,23.5,4.3,4.64,.86,8.41,1.66,10.84,2.2,.98,.81,7.35,6.23,7.4,12.96Z"/>
        <path class="cls-1" d="M205.48,208.1c-22.71,0-42.04-14.45-49.3-34.66-1.99-5.53-3.08-11.5-3.08-17.72,28.67,0,51.96,23.04,52.37,51.6,0,.26,0,.52,0,.77Z"/>
        <path class="cls-1" d="M148.13,155.97c-.03,6.32-1.17,12.38-3.26,17.98-6.84,18.45-23.8,31.99-44.13,33.91,0-.17,0-.35,0-.53h0c.38-26.9,21.05-48.88,47.39-51.36Z"/>
        <path class="cls-1" d="M205.48,208.1c-22.71,0-42.04-14.45-49.3-34.66-1.99-5.53-3.08-11.5-3.08-17.72,28.67,0,51.96,23.04,52.37,51.6,0,.26,0,.52,0,.77Z"/>
        <path class="cls-1" d="M148.13,155.97c-.03,6.32-1.17,12.38-3.26,17.98-6.84,18.45-23.8,31.99-44.13,33.91,0-.17,0-.35,0-.53h0c.38-26.9,21.05-48.88,47.39-51.36Z"/>
        <circle class="cls-1" cx="150.26" cy="127.41" r="21.28"/>
      </g>
    </g>
  </g>
</svg>