<?xml version="1.0" encoding="UTF-8"?>
<svg id="Layer_2" data-name="Layer 2" xmlns="http://www.w3.org/2000/svg" xmlns:xlink="http://www.w3.org/1999/xlink" viewBox="0 0 321.71 288.41">
  <defs>
    <style>
      .cls-1 {
        fill: none;
        stroke: #231f20;
        stroke-width: .93px;
      }

      .cls-2 {
        fill: #231f20;
        font-family: Herculanum, Herculanum;
        font-size: 41px;
      }

      .cls-3 {
        fill-rule: evenodd;
      }
    </style>
    <symbol id="Ribbon_2" data-name="Ribbon 2" viewBox="0 0 239.11 239.11">
      <use width="239.11" height="239.11" xlink:href="#combo"/>
    </symbol>
    <symbol id="Vector_Grime" data-name="Vector Grime" viewBox="0 0 160.54 177.33">
      <path class="cls-3" d="M68.91,1.88c.56-2.69-4.08-2.32-2.6,0,1.44-.16,1.62,.45,2.6,0Zm-1.3,18.52c1.38,.39,2.77,.46,1.95,2.27,1.66-.38,3.27,.71,4.55,1.62,2.36-.57,3.78-.11,5.52,.65,.73-2.74,3.43-3.5,5.52-4.87-.55-1.57-.17-2.89,1.3-3.25,.44-3.17-1.94-4.44-.65-7.47-3.27-.73-4.27-3.75-6.82-5.2-.26,.72-.65,1.3-1.62,1.3-.88-.2-.81-1.36-1.95-1.3-.44,1.53-2.15,1.95-3.9,1.3-1,2.25-2.72,3.78-4.87,4.87,1.69,1.53-.14,3.85-.98,4.87,.66,2.14,2.22,2.61,1.95,5.2Zm55.24-9.42c3.03,.92,5.69-1.21,5.85-4.23-2.61-.53-5.6,1.02-6.17,3.57,.25,.07,.38,.27,.33,.65Zm29.24,12.67c.07-1.19,.45-1.25,0-2.27-1.8,0-2.73-1.74-4.55-2.27-1.75-.52-3.98,.3-5.2-1.3-.58,1.25-1.97,1.57-3.57,.98-.44,2.7-3.76,2.52-3.57,5.85-.57-.02-1.01,.07-1.3,.32-.24,1,.89,.62,.65,1.62-.29,.91-1.61,.77-1.62,1.95,1.93,.67,2.02,3.18,2.6,5.2,1.96,.75,2.49,2.92,4.55,3.58-2.6,.97-4.78,2.36-4.87,5.85,7.04,3.49,7.47-8.37,14.95-6.5,1.49-3.41,5.06-6.41,2.92-10.72,.41-.79,1.64-.75,1.62-1.95-.78-.2-2.36,.41-2.6-.32ZM31.55,59.07c-1.85-.42-3.37-1.17-5.2-1.62,.08,1.98,3.91,1.93,5.2,1.62Zm125.42,26.64c.89,1.16,3.57,.66,3.57-.98-.74-1.69-3.62-.88-3.57,.98Zm-111.45,54.91c-1.39-.2-1.33,1.06-2.6,.97-1.53-.53-1.65-2.46-2.27-3.9-1.33-.24-1.12,1.05-2.6,.65-.97-.44-1.35-1.47-1.95-2.27-2.98,.59-3.64-1.12-5.2-1.95-.57,.51-.67,1.49-1.62,1.62-3.11-1.3-3.47,2.79-6.82,1.3-1.07,3.71-3.94,5.8-8.12,5.52-.12,1.96,2.2,1.49,2.6,2.92,.57,2.84-1.03,3.52-1.3,5.52,1.08,1.82,1.88,4.49,2.28,7.8,1.68-.06,1.98,1.27,2.6,2.27,1.73-.22,2.84,.19,3.25,1.3,.36,1.76-.66,2.16-.65,3.57,1.54-.74,2.74-1.81,4.88-1.95,1.43,1.06,2.38,2.6,5.52,1.95,.18-1.01,.77-1.61,1.62-1.95,.99,.42,.87,1.95,2.27,1.95,1.08-.65-.53-3.69,1.62-3.9,1.36-.06,1,1.6,2.6,1.3,.36-1.49,.36-2.09,0-3.57,2.14-1.32,2.61,1.6,3.9,.98,0-1.4-1.62-1.2-1.62-2.6,1.48-2-.48-5.83,1.62-7.47,1.44-.72,6.13,.99,8.12-.65-6.53,1.79-11.7-3.98-8.12-9.42Zm73.76-.65c1.62,2.36,4.19,.73,7.8,1.3-.92-2.1-5.29-1.8-7.8-1.3Zm-65.63,13c2.29,.42,4.69,.73,7.15,.98-.98-1.52-5.23-1.47-7.15-.98Zm-49.06,9.1c-1.25-2.44-4.28-.53-4.55,1.3-.34,2.28,2.23,2.89,2.27,4.87,4.29,1.4,3.95-3.86,5.85-5.85-.17-.48-.48-.82-.65-1.3-1.54-.24-2.13,.46-2.92,.98Zm112.42,4.87c.08,1.85,3.29,2.02,4.22,1.95-.57-1.49-2.54-1.58-4.22-1.95Zm-11.05,10.4c-.66-2.81-1.66-5.27-3.25-7.15,.63,2.84,1.74,5.19,3.25,7.15ZM138.44,48.02v-1.3c-1.81-.59-1.52-.35-3.25,.65-1.22-.92-2.09-.22-3.25-.98-.55,1.4-1.47,2.43-3.9,1.95-1.13,2.69-4.24,4.67-4.22,8.12,0,1.82,1.9,3.62,.65,5.2-5.38-5.65-18.11,.31-24.69-1.62,.83-2.52,2.08-4.64,2.92-7.15,1.21-.32,2.65-1.73,1.62-3.25-4.36,1.48-4.25,7.45-8.77,8.77-1.76-1.97-3.73-2.52-5.85-4.55-.24-4.77-2.51-7.11-4.22-10.07-.71-1.22-.44-2.95-2.27-2.92-.18,.47-.51,.79-.97,.97-.26,1.88,.9,2.35,.65,4.23-3.34,1.82-8.99-.5-12.67-2.27-.39,2.02,.74,2.51,.65,4.22-3.39,1.72-5.53-.77-8.77,.65-1.79-1.13-2.47-3.38-4.87-3.9-2.17-1.84-2.47-5.54-5.2-6.82-.08,2.22,1,2.47,1.95,3.9,1.08,1.63,2.12,4.45,3.25,5.85,1.48,1.82,3.37,2.43,3.25,4.22-.17,2.46-3.03,2.58-5.2,3.9-2.03,9-12.3,6.23-19.5,3.9,4.2,2.19,9.7,3.08,13.32,5.85-2.41,1.92-4.67,4-6.17,6.82-1.91-.15-2.39-1.72-4.88-1.3-.29,1.8,1.75,1.28,2.27,2.27-5.04,1.16-7.11-3.24-12.67-2.27-.08-.46-.54-.55-.65-.98-.21-1.19,.7-1.25,.65-2.27-1.44-1.08-2.56-2.62-2.27-4.55-2.3-1.06-4.26-2.46-4.55-5.52-1.59-.29-.88,1.72-2.6,1.3-.88-2.7-2.48-.89-4.87-1.95-.38,.49-.4,1.33-.97,1.63-3.51-.8-3.53,1.89-5.52,2.6-2.21-.82-3.25-2.61-5.85-1.62,.09,1.75,3.06,.62,3.57,1.95-1.19,3.04-2.04,6.4-3.57,9.1,1.35,.85,2.13,2.77,1.3,4.87,2.01,1.85,4.06,4.02,4.87,6.17,1.19,.21,1.25-.7,2.27-.65,1.02,.72,2.02,1.45,2.28,2.93,3.16-1.7,6.69-1.54,10.07-2.28,.54-.43,.11-1.84,.65-2.27,1-.08,1.84-.33,2.6-.65,.83-.41-.3-1.59,.33-1.62,4.45,.6,11.45-.05,14.94,2.92,1.02,3.5,1.76,6.96,0,10.4-.56,.4-2.16-.25-3.57,0-.83-.25-.55-1.62-1.62-1.62-5.68,1.03-9.59,3.84-11.37,8.77,.34,1.72,.64,3.48,.65,5.52,1.55,3.21,5.02,4.51,7.15,7.15,.66-1.32,3.11-1.11,4.22-.32,3.65-1.87,7.24-3.81,8.45-8.12,4.87,0,5.03,4.72,8.12,6.5-.88,4.85-2.37,9.11-3.57,13.65,2.39-1.92,3.29-5.9,3.9-10.4,1.35-.38,2.28-1.19,3.57-1.62,.82,.8,2.2,1.05,2.28,2.6,.03,1.22-1.19,1.19-1.3,2.27,3.78-.42,9.85-.77,9.42,5.2,1.86,.56,1.22-1.38,2.6-1.3,3.08,2.25,3.76,11.49,1.95,14.62-1.95-2.42-1.69-6.25-5.52-5.85-3.8,.4-4.52,5.89-1.95,9.1,3.32,1.1,6.29,3.22,8.12-.65,3.44,3.03,1.27,10.38-1.95,12.35-1.33,.29-2.63,.62-2.92,1.95,.25,.07,.38,.27,.32,.65,1.17,.68,3.51,.17,5.2,.33,.89,1.61,2.16,2.83,2.28,5.2-.91,1.05-3.66,1.96-2.92,3.57,.85-1.66,4.39-2.14,6.17-.97,.13,1.17,.42,2.18,.65,3.25,2.34,.87,4.2,2.97,7.15,2.27,.84,1,.44,3.24,1.62,3.9,1.88,.15,1.31-2.16,3.25-1.95,.76,.97-.33,3.8,1.62,3.57,1.31-.42,.72-2.74,1.62-3.57,2.72-.71,4.3,.06,6.82,0,.38,.49,.4,1.33,.98,1.62,.19-.58-.95-1.35,0-1.62,1.36,.05,1.45,1.37,3.25,.98-.03-1.39-.65-2.38,0-3.57,6.24-.37,6.84-6.37,10.07-9.75,3.98-.72,6.63,1.6,9.1,1.3-1.15-.69-3-.68-3.57-1.95,.68-.87,2.38-1.22,1.62-2.6-2.07-.12-2.71,1.19-3.9,1.95-1.03-.7-3.11-.36-3.57-1.62-.37-2.43,1.09-3.02,1.95-4.22-.25-1.59-1.35-2.33-1.3-4.22,.22-1.29,2.38-.66,2.28-2.28-.09-1.32-2.12-.69-2.92-1.3-.41-2.38,.17-2.62,.32-4.87-2.2-.62-4.15-1.49-3.9-4.55-2.55-.37-4.79-1.06-4.55-4.22-.59-.82-2.13-.68-2.6-1.62,.37-.1,1.12-1.42,.32-1.62-.72,1.97-4.47,.51-5.52-.32-1.27,.25-1.26,1.77-2.92,1.62-.14-.62-.7-.82-.65-1.62,2.26-1.53,6.71-.88,9.1-2.27-.02-3.48-1.66-6.92,.33-10.4,.33,0,.39-.26,.65-.32,.53,.56,1.36,.81,2.6,.65,2.84,4.04,7.83,4.13,11.7,6.82-2.08-3.78-10.95-3.56-9.75-11.7-2.12-.5-1.68,2.93-3.25,1.95,.73-2.63,3.58-3.14,4.87-5.2,7.85-2.27,12.95,4.88,20.47,2.27,2.19-8.97-14.02-7.12-14.62-13.65-.37-4.04,3.27-2.8,5.85-3.9-.79-2.58-4.64-.58-5.85-2.27-.14-2.85,2.63-2.79,4.22-3.9-.53-3.17,2.01-3.4,3.25-5.52-.79-1.7-3.79-1.19-4.22-3.25,1.77-2.57,4.31-8.07,8.45-5.2,1.86-1.5,3.14,.05,4.55,1.3,1.16-1.45,2.44-.69,4.22-.32,2.16-2.81,7.39-4.95,5.52-9.75,.11-1.3,1.34-1.47,1.3-2.93-2.38-1.85-2.65-5.79-6.17-6.5Zm-51.34,74.41c.99-.31,3.04-.11,2.92,1.62-1.19,.79-2.74-.38-2.92-1.62Zm21.45-15.6c1.52,.54,1.5,2.62,2.27,3.9-1.6-.4-3.96-2.21-2.27-3.9Zm-42.89,17.22c-2.47,1.54-5.85,3.9-6.82,5.85,2.38-1.84,5.21-3.24,6.82-5.85Zm-11.37,26.32c.67-.59,4.81,.7,5.52-.98-1.97-.01-5.81-.19-5.52,.98Z"/>
    </symbol>
    <symbol id="combo" viewBox="0 0 239.11 239.11">
      <g>
        <use width="239.11" height="239.11" xlink:href="#largespiral"/>
        <use width="160.54" height="177.33" transform="translate(58.32 169.22) rotate(-87.54) scale(.66)" xlink:href="#Vector_Grime"/>
      </g>
    </symbol>
    <symbol id="largespiral" viewBox="0 0 239.11 239.11">
      <g>
        <path class="cls-1" d="M117.98,.47c19.76-.25,23.88,51.2,34.18,56.57,11.74,6.11,59.65-16.6,71.41,4.44,10.38,18.58-33.59,46.46-33.65,58.19-.07,12.22,43.16,41.5,32.85,59.41-10.38,18.02-57.37-4.8-68.86,1.63-11.05,6.18-15.28,58.13-35.3,57.94-19.59-.18-22.51-52.08-32.65-57.6-11.25-6.13-58.92,16.94-70.29-3.41-10.84-19.41,33.35-47.94,33.69-60.17,.32-11.35-43.07-39.21-33.71-56,10.39-18.63,57.9,3.12,69.7-3.47C95.91,52.08,98.82,.71,117.98,.47Z"/>
        <path class="cls-1" d="M124.77,2.23c19.57,.93,20.67,51.94,30.57,57.94,11.09,6.72,59.53-13.08,69.91,7.87,9.25,18.67-35.64,43.8-36.31,55.35-.74,12.11,40.24,43.44,28.82,60.62-11.38,17.22-56.32-7.97-67.9-2.3-11.09,5.45-17.95,56.51-37.6,55.24-19.49-1.26-19.63-52.79-29.41-58.94-10.62-6.69-58.73,13.56-68.87-6.66-9.67-19.45,35.28-45.27,36.23-57.28,.91-11.4-40.02-41.41-29.47-57.72,11.41-17.64,56.61,6.46,68.42,.65C99.89,51.73,105.74,1.3,124.77,2.23Z"/>
        <path class="cls-1" d="M131.55,4c19.38,2.11,17.45,52.66,26.95,59.3,10.44,7.3,59.4-9.55,68.42,11.3,8.12,18.77-37.67,41.14-38.98,52.51-1.38,12.01,37.29,45.34,24.79,61.83-12.43,16.39-55.28-11.15-66.93-6.22-11.12,4.73-20.61,54.89-39.9,52.55-19.39-2.34-16.74-53.48-26.16-60.29-9.99-7.23-58.61,10.21-67.45-9.91-8.55-19.46,37.22-42.6,38.77-54.4,1.51-11.45-37.01-43.61-25.23-59.42,12.4-16.65,55.33,9.82,67.14,4.78,10.9-4.65,19.7-54.14,38.58-52.04Z"/>
        <path class="cls-1" d="M138.35,5.76c19.18,3.29,14.24,53.36,23.33,60.67,9.79,7.87,59.26-6.02,66.92,14.73,6.97,18.88-39.71,38.48-41.63,49.67-2.05,11.91,34.37,47.26,20.76,63.04-13.44,15.58-54.23-14.34-65.97-10.15-11.16,3.99-23.28,53.25-42.2,49.86-19.29-3.45-13.87-54.15-22.92-61.63-9.37-7.74-58.45,6.84-66.03-13.15-7.4-19.5,39.18-39.95,41.32-51.51,2.13-11.51-34.02-45.83-20.99-61.14,13.35-15.68,54.05,13.17,65.86,8.9,11.09-4.01,22.81-52.57,41.56-49.3Z"/>
        <path class="cls-1" d="M145.14,7.52c18.99,4.47,11.03,54.05,19.71,62.04,9.16,8.42,59.11-2.47,65.42,18.16,5.81,18.99-41.76,35.83-44.29,46.84-2.71,11.8,31.45,49.18,16.73,64.25-14.45,14.78-53.19-17.52-65-14.07-11.2,3.27-25.95,51.59-44.51,47.17-19.19-4.57-10.99-54.8-19.68-62.97-8.75-8.24-58.28,3.45-64.61-16.4-6.23-19.54,41.16-37.28,43.86-48.62,2.76-11.56-31.07-48.06-16.76-62.85,14.27-14.74,52.78,16.55,64.58,13.03,11.27-3.36,25.93-51,44.54-46.56Z"/>
        <path class="cls-1" d="M151.92,9.29c18.79,5.65,7.84,54.73,16.1,63.4,8.54,8.96,58.95,1.08,63.93,21.59,4.64,19.11-43.82,33.17-46.96,44-3.39,11.7,28.54,51.12,12.7,65.45-15.44,13.98-52.14-20.69-64.03-18-11.22,2.54-28.62,49.91-46.8,44.48-19.1-5.7-8.13-55.44-16.44-64.32-8.15-8.72-58.1,.07-63.2-19.64-5.06-19.58,43.14-34.61,46.4-45.73,3.41-11.61-28.14-50.32-12.52-64.56,15.16-13.81,51.52,19.93,63.3,17.15,11.46-2.7,29.04-49.44,47.51-43.82Z"/>
        <path class="cls-1" d="M158.71,11.05c18.6,6.83,4.66,55.4,12.48,64.77,7.93,9.49,58.77,4.63,62.43,25.02,3.46,19.23-45.88,30.51-49.62,41.16-4.07,11.59,25.64,53.06,8.67,66.66-16.44,13.19-51.09-23.86-63.07-21.92-11.26,1.83-31.28,48.21-49.1,41.79-19-6.85-5.3-56.07-13.2-65.66-7.57-9.19-57.91-3.31-61.78-22.89-3.87-19.63,45.15-31.94,48.95-42.85,4.06-11.65-25.24-52.61-8.28-66.27,16.03-12.91,50.26,23.33,62.02,21.28,11.65-2.03,32.16-47.87,50.49-41.08Z"/>
        <path class="cls-1" d="M165.51,12.82c18.4,8.01,1.49,56.06,8.86,66.13,7.33,10.02,58.57,8.19,60.93,28.44,2.26,19.35-47.94,27.85-52.28,38.32-4.75,11.48,22.73,55,4.64,67.87-17.43,12.4-50.04-27.01-62.1-25.84-11.29,1.13-33.93,46.51-51.4,39.09-18.88-8.02-2.47-56.68-9.95-67.01-7-9.65-57.71-6.7-60.36-26.14-2.68-19.68,47.15-29.26,51.49-39.96,4.74-11.69-22.35-54.93-4.04-67.99,16.89-12.04,48.99,26.74,60.75,25.4,11.85-1.34,35.27-46.3,53.46-38.33Z"/>
        <path class="cls-1" d="M172.29,14.58c18.21,9.2-1.67,56.72,5.24,67.5,6.75,10.54,58.36,11.74,59.44,31.87,1.05,19.47-50.03,25.17-54.94,35.48-5.45,11.37,19.85,56.98,.62,69.08-18.4,11.65-48.99-30.18-61.14-29.77-11.32,.41-36.57,44.8-53.7,36.4-18.76-9.2,.34-57.3-6.71-68.35-6.44-10.11-57.5-10.08-58.94-29.38-1.47-19.72,49.17-26.58,54.03-37.07,5.42-11.72-19.48-57.27,.2-69.7,17.74-11.2,47.73,30.16,59.47,29.53,12.03-.65,38.38-44.73,56.44-35.59Z"/>
        <path class="cls-1" d="M.47,121.14c-.26-19.76,51.2-23.88,56.57-34.18,6.11-11.74-16.6-59.65,4.44-71.41,18.58-10.38,46.46,33.59,58.19,33.65,12.22,.07,41.5-43.16,59.41-32.85,18.02,10.38-4.8,57.37,1.62,68.86,6.18,11.05,58.13,15.28,57.94,35.3-.18,19.59-52.08,22.51-57.6,32.65-6.13,11.26,16.94,58.92-3.42,70.29-19.41,10.85-47.94-33.35-60.17-33.69-11.35-.31-39.21,43.07-56,33.71-18.63-10.39,3.12-57.9-3.47-69.7C52.08,143.2,.71,140.3,.47,121.14Z"/>
      </g>
    </symbol>
  </defs>
  <g id="Layer_1-2" data-name="Layer 1">
    <use width="239.11" height="239.11" transform="translate(278.27 38.48) rotate(88.65)" xlink:href="#Ribbon_2"/>
    <text class="cls-2" transform="translate(34.85 184.58) rotate(-94.82)"><tspan x="0" y="0">G</tspan></text>
    <text class="cls-2" transform="translate(32.58 160.05) rotate(-83.59)"><tspan x="0" y="0">A</tspan></text>
    <text class="cls-2" transform="translate(35.67 134.05) rotate(-73.17)"><tspan x="0" y="0">L</tspan></text>
    <text class="cls-2" transform="translate(41.48 114.6) rotate(-64.01)"><tspan x="0" y="0">L</tspan></text>
    <text class="cls-2" transform="translate(50.36 96.34) rotate(-55.25)"><tspan x="0" y="0">E</tspan></text>
    <text class="cls-2" transform="translate(60.87 80.84) rotate(-46.22)"><tspan x="0" y="0">R</tspan></text>
    <text class="cls-2" transform="translate(73.09 66.68) rotate(-35.24)"><tspan x="0" y="0">Y</tspan></text>
    <text class="cls-2" transform="translate(101.19 47.95) rotate(-25.33)"><tspan x="0" y="0"> </tspan></text>
    <text class="cls-2" transform="translate(110.48 42.93) rotate(-17.33)"><tspan x="0" y="0">o</tspan></text>
    <text class="cls-2" transform="translate(134.09 35.64) rotate(-7.06)"><tspan x="0" y="0">f</tspan></text>
    <text class="cls-2" transform="translate(155.16 33.22) rotate(.93)"><tspan x="0" y="0"> </tspan></text>
    <text class="cls-2" transform="translate(165.69 32.71) rotate(8.03)"><tspan x="0" y="0">D</tspan></text>
    <text class="cls-2" transform="translate(190.98 36.7) rotate(16.68)"><tspan x="0" y="0">I</tspan></text>
    <text class="cls-2" transform="translate(203.33 39.86) rotate(25.16)"><tspan x="0" y="0">G</tspan></text>
    <text class="cls-2" transform="translate(225.69 50.78) rotate(33.61)"><tspan x="0" y="0">I</tspan></text>
    <text class="cls-2" transform="translate(236.54 57.67) rotate(40.88)"><tspan x="0" y="0">T</tspan></text>
    <text class="cls-2" transform="translate(251.49 70.08) rotate(51.04)"><tspan x="0" y="0">A</tspan></text>
    <text class="cls-2" transform="translate(267.83 90.55) rotate(61.4)"><tspan x="0" y="0">L</tspan></text>
    <text class="cls-2" transform="translate(277.41 108.65) rotate(68.41)"><tspan x="0" y="0"> </tspan></text>
    <text class="cls-2" transform="translate(281.38 116.81) rotate(76.09)"><tspan x="0" y="0">A</tspan></text>
    <text class="cls-2" transform="translate(287.57 142.25) rotate(86.8)"><tspan x="0" y="0">R</tspan></text>
    <text class="cls-2" transform="translate(288.78 164.01) rotate(95.93)"><tspan x="0" y="0">T</tspan></text>
    <circle class="cls-1" cx="162.39" cy="159.33" r="1.53"/>
    <path class="cls-1" d="M160.86,159.33h0Z"/>
  </g>
</svg>