<?xml version="1.0" encoding="UTF-8"?>
<svg id="Layer_2" data-name="Layer 2" xmlns="http://www.w3.org/2000/svg" viewBox="0 0 333.71 294.52">
  <defs>
    <style>
      .cls-1, .cls-2 {
        fill: #231f20;
      }

      .cls-2 {
        font-family: Herculanum, Herculanum;
        font-size: 41px;
      }
    </style>
  </defs>
  <g id="Layer_1-2" data-name="Layer 1">
    <g>
      <path class="cls-1" d="M80,82.53c3.41-3.2,5.2-4.73,8.91-7.62-24.02,36.27-29.31,75.44-23.74,118.1-2.41-44.68,7.89-85.18,31.07-123.42,3.92-2.64,5.94-3.88,10.11-6.17-30.54,67.18-30.54,144.69,0,211.87-2.6-1.43-3.87-2.18-6.37-3.75-26.61-50.21-31.26-105.06-18.13-160.03-14.69,53.39-14.17,107.83,13.39,156.91-2.19-1.51-3.27-2.29-5.38-3.9-30.89-44.46-42.24-94.95-27.03-147.48-16.74,50.96-9.6,100.96,22.63,143.97-2.24-1.87-3.34-2.84-5.46-4.83-44.87-52.24-44.83-121.45,0-173.65Z"/>
      <path class="cls-1" d="M120.5,250.61c-4.75-.89-7.08-1.39-11.68-2.47,2.34,11.15,5.01,21.64,8.4,32.51-3.42-1.49-5.1-2.3-8.38-4.02-29.4-68.19-15.87-152.43,10.02-219.28,3.68-1.55,5.56-2.26,9.38-3.54-18.02,75.78-7.33,159.56,10.85,234.21-3.8-.93-5.68-1.46-9.37-2.65-3.57-11.45-6.62-23.06-9.22-34.77Zm-8.42-51.2c-2.89-29.78-3.46-59.14-1.08-88.98-5.11,29.43-7.53,58.56-7.15,88.43,3.26,.23,4.91,.34,8.23,.55Z"/>
      <path class="cls-1" d="M151.92,205.99c-.35-18.51-.45-37.01-.3-55.52,7.8-.09,11.76-.11,19.74-.11,0,36.62,0,73.24,0,109.87-2.24,9.28-4.1,19.26-7.79,27.97-1.93,4.56-4.37,6.65-7.27,6.3-3.57-.42-6.98-4.91-10.42-13.79-5.16-13.31-8.07-27.49-10.61-41.41-4.16-22.88-5.63-46.78-5.65-69.93-.02-23.9,1.73-48.31,6.07-72.13,2.59-14.24,5.93-28.63,11.46-41.93,2.92-7.04,6.08-10.71,9.53-11.11,3.33-.39,5.7,1.45,7.26,5.54,1.57,4.1,2.91,10.66,4.05,20.13,1.51,12.63,2.18,25.37,2.83,38.09-4.72,5.32-7.14,8.05-12.01,13.58-.3-9.63-.92-16.74-1.87-21.58-.95-4.84-2.23-7.16-3.92-7.06-2.52,.14-4.92,5.82-7.02,17.53-3.43,19.06-3.9,38.87-3.93,58.04-.03,19.86,.35,40.54,3.98,60.3,2.12,11.53,4.6,17.14,7.31,17.29,1.29,.07,2.46-1.06,3.55-3.44,1.09-2.37,2.33-6.47,3.78-12.44-.2-9.39-.29-14.2-.41-24.01-3.36-.04-5.03-.07-8.36-.15Z"/>
      <path class="cls-1" d="M177.42,169.54c0-32.05-.17-65.09,3.94-96.48,1.17-8.9,4.17-27.94,10.09-28.13,6.4-.2,13.48,21.61,16.19,30.28,9.11,29.2,11.75,61.52,11.88,92.16,.1,23.92-1.4,48.74-6.18,72.3-2.72,13.39-5.95,26.93-11.14,39.74-3.7,9.12-7.09,13.76-10.38,14.3-3.35,.55-5.8-2.71-7.6-10.11-3.02-12.48-3.76-25.71-4.73-38.52-1.89-25-2.07-50.44-2.07-75.55Zm12.81,.37c0,18.89-.49,38.07,1.21,56.87,.99,10.92,2.58,16.04,4.98,15.87,2.46-.18,4.81-5.44,6.84-16.15,3.72-19.7,4.05-40.44,3.97-60.24-.08-17.62-.7-35.83-4.01-53.28-2.04-10.77-4.43-16.09-6.85-16.26-2.32-.16-3.88,4.97-4.88,15.9-1.74,18.93-1.25,38.26-1.25,57.3Z"/>
      <path class="cls-1" d="M212.25,53.11c5.25,1.66,7.81,2.62,12.79,4.78,2.46,1.06,5.31,4.21,8.66,9.45,3.35,5.25,7.28,12.43,11.3,22,4.67,11.12,8.3,22.68,10.83,34.47,3.19,14.81,4.74,30.01,4.79,44.73,.07,18.83-1.93,38.67-7.25,56.92-3.09,10.57-6.84,21.29-11.75,31.37-3.99,8.2-7.27,13.7-9.6,16.75-3.2,4.19-5.49,6.61-6.99,7.25-4.98,2.16-7.55,3.12-12.79,4.78,18.81-75.8,18.81-156.69,0-232.49Zm20.36,50.17c6.77,44.17,6.77,87.83,.03,131.99,1.05-.18,1.57-.27,2.62-.46,2.22-.4,4.1-2.29,5.61-5.65,1.52-3.37,3.31-9.11,4.9-17.42,2.6-13.61,3.75-27.92,3.57-41.71-.23-17.38-1.17-35.22-5.85-52.04-2.51-9.03-5.45-13.74-8.21-14.24-1.06-.19-1.59-.28-2.66-.47Z"/>
      <path class="cls-1" d="M270.86,236.07c-3.95,1.69-5.98,2.49-10.13,4.02-4.77,10.46-9.75,20.02-15.61,29.9-3.07,2.02-4.64,2.97-7.87,4.78,32.21-63.23,44.05-140.37,9.33-205.09,3.25,2.2,4.83,3.35,7.88,5.77,39.25,53.75,54.05,126.11,8.21,180.72-2.72,2.55-4.13,3.77-7.03,6.13,6.1-7.71,11.52-17.14,15.22-26.23Zm10.47-41.4c1.74-26.68-1.28-50.54-9.04-76.11,5.52,26.23,5.7,50.5,1.77,77,2.95-.35,4.4-.52,7.26-.89Z"/>
    </g>
    <text class="cls-2" transform="translate(34.87 191.08) rotate(-94.82)"><tspan x="0" y="0">G</tspan></text>
    <text class="cls-2" transform="translate(32.62 165.38) rotate(-83.59)"><tspan x="0" y="0">A</tspan></text>
    <text class="cls-2" transform="translate(35.93 138.31) rotate(-73.17)"><tspan x="0" y="0">L</tspan></text>
    <text class="cls-2" transform="translate(42.08 117.97) rotate(-64.01)"><tspan x="0" y="0">L</tspan></text>
    <text class="cls-2" transform="translate(51.43 98.92) rotate(-55.25)"><tspan x="0" y="0">E</tspan></text>
    <text class="cls-2" transform="translate(62.54 82.69) rotate(-46.22)"><tspan x="0" y="0">R</tspan></text>
    <text class="cls-2" transform="translate(75.62 67.78) rotate(-35.24)"><tspan x="0" y="0">Y</tspan></text>
    <text class="cls-2" transform="translate(104.63 48.53) rotate(-25.33)"><tspan x="0" y="0"> </tspan></text>
    <text class="cls-2" transform="translate(114.69 43.2) rotate(-17.33)"><tspan x="0" y="0">o</tspan></text>
    <text class="cls-2" transform="translate(139.35 35.68) rotate(-7.06)"><tspan x="0" y="0">f</tspan></text>
    <text class="cls-2" transform="translate(161.26 33.22) rotate(.93)"><tspan x="0" y="0"> </tspan></text>
    <text class="cls-2" transform="translate(172.53 32.77) rotate(8.03)"><tspan x="0" y="0">D</tspan></text>
    <text class="cls-2" transform="translate(198.7 36.95) rotate(16.68)"><tspan x="0" y="0">I</tspan></text>
    <text class="cls-2" transform="translate(211.88 40.42) rotate(25.16)"><tspan x="0" y="0">G</tspan></text>
    <text class="cls-2" transform="translate(235.01 51.78) rotate(33.61)"><tspan x="0" y="0">I</tspan></text>
    <text class="cls-2" transform="translate(246.47 59.13) rotate(40.88)"><tspan x="0" y="0">T</tspan></text>
    <text class="cls-2" transform="translate(262.15 72.3) rotate(51.04)"><tspan x="0" y="0">A</tspan></text>
    <text class="cls-2" transform="translate(279.1 93.68) rotate(61.4)"><tspan x="0" y="0">L</tspan></text>
    <text class="cls-2" transform="translate(288.99 112.45) rotate(68.41)"><tspan x="0" y="0"> </tspan></text>
    <text class="cls-2" transform="translate(293.21 121.37) rotate(76.09)"><tspan x="0" y="0">A</tspan></text>
    <text class="cls-2" transform="translate(299.56 147.92) rotate(86.8)"><tspan x="0" y="0">R</tspan></text>
    <text class="cls-2" transform="translate(300.75 170.63) rotate(95.93)"><tspan x="0" y="0">T</tspan></text>
  </g>
</svg>