<svg xmlns="http://www.w3.org/2000/svg" width="1440" height="900"><path d="M1001,473L1267,472L1276,233Z" fill="#d6cdda" stroke="#d6cdda" stroke-width="1.51"/><path d="M1276,233L1009,173L1001,473Z" fill="#e0cfcd" stroke="#e0cfcd" stroke-width="1.51"/><path d="M1267,472L1455,478L1276,233Z" fill="#c6bace" stroke="#c6bace" stroke-width="1.51"/><path d="M1441,727L1455,478L1267,472Z" fill="#b4aed0" stroke="#b4aed0" stroke-width="1.51"/><path d="M1277,-62L952,-33L1009,173Z" fill="#e3b295" stroke="#e3b295" stroke-width="1.51"/><path d="M1455,478L1505,182L1276,233Z" fill="#c0a9b7" stroke="#c0a9b7" stroke-width="1.51"/><path d="M1001,473L1255,736L1267,472Z" fill="#cbc8e1" stroke="#cbc8e1" stroke-width="1.51"/><path d="M1009,173L673,415L1001,473Z" fill="#efe6e1" stroke="#efe6e1" stroke-width="1.51"/><path d="M1277,-62L1009,173L1276,233Z" fill="#ddb3a1" stroke="#ddb3a1" stroke-width="1.51"/><path d="M1505,182L1277,-62L1276,233Z" fill="#cb9e96" stroke="#cb9e96" stroke-width="1.51"/><path d="M1001,473L961,750L1255,736Z" fill="#cbcae3" stroke="#cbcae3" stroke-width="1.51"/><path d="M680,741L961,750L1001,473Z" fill="#dadbeb" stroke="#dadbeb" stroke-width="1.51"/><path d="M952,-33L721,161L1009,173Z" fill="#f4cdab" stroke="#f4cdab" stroke-width="1.51"/><path d="M721,161L673,415L1009,173Z" fill="#f7e4cf" stroke="#f7e4cf" stroke-width="1.51"/><path d="M1455,478L1705,235L1505,182Z" fill="#b491ad" stroke="#b491ad" stroke-width="1.51"/><path d="M1255,736L1441,727L1267,472Z" fill="#b4afd2" stroke="#b4afd2" stroke-width="1.51"/><path d="M1733,463L1705,235L1455,478Z" fill="#aa89b7" stroke="#aa89b7" stroke-width="1.51"/><path d="M1505,182L1534,-97L1277,-62Z" fill="#be837a" stroke="#be837a" stroke-width="1.51"/><path d="M952,-33L723,-67L721,161Z" fill="#f6c79d" stroke="#f6c79d" stroke-width="1.51"/><path d="M433,212L500,480L673,415Z" fill="#fce9ce" stroke="#fce9ce" stroke-width="1.51"/><path d="M727,-290L723,-67L952,-33Z" fill="#ebb286" stroke="#ebb286" stroke-width="1.51"/><path d="M1255,736L1262,927L1441,727Z" fill="#a49bc7" stroke="#a49bc7" stroke-width="1.51"/><path d="M961,750L1262,927L1255,736Z" fill="#b5add4" stroke="#b5add4" stroke-width="1.51"/><path d="M1722,-90L1534,-97L1505,182Z" fill="#b0686f" stroke="#b0686f" stroke-width="1.51"/><path d="M1277,-62L1004,-352L952,-33Z" fill="#d59a7c" stroke="#d59a7c" stroke-width="1.51"/><path d="M961,750L945,973L1262,927Z" fill="#b2abd1" stroke="#b2abd1" stroke-width="1.51"/><path d="M673,415L680,741L1001,473Z" fill="#eaebf3" stroke="#eaebf3" stroke-width="1.51"/><path d="M1772,730L1733,463L1441,727Z" fill="#967cb8" stroke="#967cb8" stroke-width="1.51"/><path d="M1441,727L1733,463L1455,478Z" fill="#a795c4" stroke="#a795c4" stroke-width="1.51"/><path d="M673,415L500,480L680,741Z" fill="#f1eae6" stroke="#f1eae6" stroke-width="1.51"/><path d="M433,212L673,415L721,161Z" fill="#fde5c5" stroke="#fde5c5" stroke-width="1.51"/><path d="M680,741L945,973L961,750Z" fill="#c9c6df" stroke="#c9c6df" stroke-width="1.51"/><path d="M1487,-351L1260,-340L1277,-62Z" fill="#ae7067" stroke="#ae7067" stroke-width="1.51"/><path d="M1260,-340L1004,-352L1277,-62Z" fill="#c08372" stroke="#c08372" stroke-width="1.51"/><path d="M428,-69L721,161L723,-67Z" fill="#fbc68f" stroke="#fbc68f" stroke-width="1.51"/><path d="M428,-69L433,212L721,161Z" fill="#ffcf95" stroke="#ffcf95" stroke-width="1.51"/><path d="M1262,927L1447,1007L1441,727Z" fill="#9186b9" stroke="#9186b9" stroke-width="1.51"/><path d="M1268,1183L1447,1007L1262,927Z" fill="#8473ae" stroke="#8473ae" stroke-width="1.51"/><path d="M1534,-97L1487,-351L1277,-62Z" fill="#ae6d65" stroke="#ae6d65" stroke-width="1.51"/><path d="M1705,235L1722,-90L1505,182Z" fill="#af6e7f" stroke="#af6e7f" stroke-width="1.51"/><path d="M2030,163L1722,-90L1705,235Z" fill="#9c5e66" stroke="#9c5e66" stroke-width="1.51"/><path d="M500,480L502,737L680,741Z" fill="#e9ddd9" stroke="#e9ddd9" stroke-width="1.51"/><path d="M680,741L680,968L945,973Z" fill="#c5bfda" stroke="#c5bfda" stroke-width="1.51"/><path d="M184,729L502,737L500,480Z" fill="#edd2be" stroke="#edd2be" stroke-width="1.51"/><path d="M1783,975L1772,730L1441,727Z" fill="#8266aa" stroke="#8266aa" stroke-width="1.51"/><path d="M2033,-280L1760,-296L1722,-90Z" fill="#7e323c" stroke="#7e323c" stroke-width="1.51"/><path d="M1004,-352L727,-290L952,-33Z" fill="#daa07f" stroke="#daa07f" stroke-width="1.51"/><path d="M945,973L1268,1183L1262,927Z" fill="#9789bc" stroke="#9789bc" stroke-width="1.51"/><path d="M502,737L680,968L680,741Z" fill="#d6cad6" stroke="#d6cad6" stroke-width="1.51"/><path d="M1760,-296L1487,-351L1534,-97Z" fill="#964856" stroke="#964856" stroke-width="1.51"/><path d="M1260,-340L1487,-351L1004,-352Z" fill="#aa726a" stroke="#aa726a" stroke-width="1.51"/><path d="M511,-280L428,-69L723,-67Z" fill="#eead71" stroke="#eead71" stroke-width="1.51"/><path d="M1447,1007L1783,975L1441,727Z" fill="#7f68a9" stroke="#7f68a9" stroke-width="1.51"/><path d="M943,1238L1268,1183L945,973Z" fill="#937cb7" stroke="#937cb7" stroke-width="1.51"/><path d="M727,-290L511,-280L723,-67Z" fill="#e5a97a" stroke="#e5a97a" stroke-width="1.51"/><path d="M1004,-352L511,-280L727,-290Z" fill="#d6a17f" stroke="#d6a17f" stroke-width="1.51"/><path d="M428,-69L252,235L433,212Z" fill="#ffc580" stroke="#ffc580" stroke-width="1.51"/><path d="M433,212L252,235L500,480Z" fill="#ffdaac" stroke="#ffdaac" stroke-width="1.51"/><path d="M202,-64L252,235L428,-69Z" fill="#f9b25f" stroke="#f9b25f" stroke-width="1.51"/><path d="M676,1216L943,1238L945,973Z" fill="#a189be" stroke="#a189be" stroke-width="1.51"/><path d="M502,737L466,945L680,968Z" fill="#cebcc5" stroke="#cebcc5" stroke-width="1.51"/><path d="M184,729L466,945L502,737Z" fill="#ddbdb3" stroke="#ddbdb3" stroke-width="1.51"/><path d="M1722,-90L1760,-296L1534,-97Z" fill="#984754" stroke="#984754" stroke-width="1.51"/><path d="M2041,420L1705,235L1733,463Z" fill="#977698" stroke="#977698" stroke-width="1.51"/><path d="M1772,730L2041,420L1733,463Z" fill="#8c729e" stroke="#8c729e" stroke-width="1.51"/><path d="M1740,1223L1783,975L1447,1007Z" fill="#603c90" stroke="#603c90" stroke-width="1.51"/><path d="M2042,737L2041,420L1772,730Z" fill="#826998" stroke="#826998" stroke-width="1.51"/><path d="M676,1216L945,973L680,968Z" fill="#b1a2ca" stroke="#b1a2ca" stroke-width="1.51"/><path d="M2041,420L2030,163L1705,235Z" fill="#956b81" stroke="#956b81" stroke-width="1.51"/><path d="M252,235L189,415L500,480Z" fill="#ffd8a9" stroke="#ffd8a9" stroke-width="1.51"/><path d="M444,1216L676,1216L680,968Z" fill="#ae8db3" stroke="#ae8db3" stroke-width="1.51"/><path d="M2041,420L2041,-29L2030,163Z" fill="#96626f" stroke="#96626f" stroke-width="1.51"/><path d="M2030,163L2041,-29L1722,-90Z" fill="#914d4f" stroke="#914d4f" stroke-width="1.51"/><path d="M1268,1183L1525,1252L1447,1007Z" fill="#6e529c" stroke="#6e529c" stroke-width="1.51"/><path d="M943,1238L1525,1252L1268,1183Z" fill="#765a9d" stroke="#765a9d" stroke-width="1.51"/><path d="M1971,997L2042,737L1772,730Z" fill="#6e528b" stroke="#6e528b" stroke-width="1.51"/><path d="M2041,420L2042,737L2041,-29Z" fill="#927192" stroke="#927192" stroke-width="1.51"/><path d="M1971,997L1772,730L1783,975Z" fill="#654987" stroke="#654987" stroke-width="1.51"/><path d="M252,235L-23,235L189,415Z" fill="#fabf7f" stroke="#fabf7f" stroke-width="1.51"/><path d="M222,-282L202,-64L428,-69Z" fill="#e99942" stroke="#e99942" stroke-width="1.51"/><path d="M189,415L184,729L500,480Z" fill="#f8d3b0" stroke="#f8d3b0" stroke-width="1.51"/><path d="M466,945L444,1216L680,968Z" fill="#ba9db2" stroke="#ba9db2" stroke-width="1.51"/><path d="M1981,1212L1971,997L1783,975Z" fill="#4e2c73" stroke="#4e2c73" stroke-width="1.51"/><path d="M1525,1252L1740,1223L1447,1007Z" fill="#5d358e" stroke="#5d358e" stroke-width="1.51"/><path d="M2041,-29L2033,-280L1722,-90Z" fill="#85393c" stroke="#85393c" stroke-width="1.51"/><path d="M1760,-296L2033,-280L1487,-351Z" fill="#7c3042" stroke="#7c3042" stroke-width="1.51"/><path d="M184,729L242,986L466,945Z" fill="#d2a89b" stroke="#d2a89b" stroke-width="1.51"/><path d="M-28,-357L222,-282L511,-280Z" fill="#d18134" stroke="#d18134" stroke-width="1.51"/><path d="M511,-280L222,-282L428,-69Z" fill="#e29952" stroke="#e29952" stroke-width="1.51"/><path d="M242,986L444,1216L466,945Z" fill="#bc929b" stroke="#bc929b" stroke-width="1.51"/><path d="M676,1216L444,1216L943,1238Z" fill="#a183b1" stroke="#a183b1" stroke-width="1.51"/><path d="M-58,-35L-23,235L202,-64Z" fill="#ec9738" stroke="#ec9738" stroke-width="1.51"/><path d="M202,-64L-23,235L252,235Z" fill="#f7af5c" stroke="#f7af5c" stroke-width="1.51"/><path d="M189,415L-66,701L184,729Z" fill="#ecb791" stroke="#ecb791" stroke-width="1.51"/><path d="M184,729L-83,923L242,986Z" fill="#ce9581" stroke="#ce9581" stroke-width="1.51"/><path d="M1740,1223L1981,1212L1783,975Z" fill="#471e71" stroke="#471e71" stroke-width="1.51"/><path d="M1971,997L1981,1212L2042,737Z" fill="#583b7b" stroke="#583b7b" stroke-width="1.51"/><path d="M1525,1252L1981,1212L1740,1223Z" fill="#44186f" stroke="#44186f" stroke-width="1.51"/><path d="M-23,235L-87,445L189,415Z" fill="#f4b67b" stroke="#f4b67b" stroke-width="1.51"/><path d="M-87,445L-66,701L189,415Z" fill="#eeb587" stroke="#eeb587" stroke-width="1.51"/><path d="M242,986L171,1226L444,1216Z" fill="#b27482" stroke="#b27482" stroke-width="1.51"/><path d="M-23,235L-306,401L-87,445Z" fill="#e4a673" stroke="#e4a673" stroke-width="1.51"/><path d="M-28,-357L-58,-35L202,-64Z" fill="#d97c14" stroke="#d97c14" stroke-width="1.51"/><path d="M444,1216L171,1226L943,1238Z" fill="#a47b9a" stroke="#a47b9a" stroke-width="1.51"/><path d="M943,1238L-341,1227L1525,1252Z" fill="#9e82b1" stroke="#9e82b1" stroke-width="1.51"/><path d="M-83,923L171,1226L242,986Z" fill="#b87772" stroke="#b87772" stroke-width="1.51"/><path d="M-66,701L-83,923L184,729Z" fill="#d5987b" stroke="#d5987b" stroke-width="1.51"/><path d="M-276,719L-83,923L-66,701Z" fill="#c78a75" stroke="#c78a75" stroke-width="1.51"/><path d="M222,-282L-28,-357L202,-64Z" fill="#d57d24" stroke="#d57d24" stroke-width="1.51"/><path d="M1004,-352L-28,-357L511,-280Z" fill="#d39660" stroke="#d39660" stroke-width="1.51"/><path d="M1487,-351L-28,-357L1004,-352Z" fill="#cb987b" stroke="#cb987b" stroke-width="1.51"/><path d="M-285,-58L-286,168L-58,-35Z" fill="#d37d2a" stroke="#d37d2a" stroke-width="1.51"/><path d="M-58,-35L-286,168L-23,235Z" fill="#e29342" stroke="#e29342" stroke-width="1.51"/><path d="M-87,445L-276,719L-66,701Z" fill="#d79e7e" stroke="#d79e7e" stroke-width="1.51"/><path d="M-286,168L-306,401L-23,235Z" fill="#dd9a61" stroke="#dd9a61" stroke-width="1.51"/><path d="M-306,401L-276,719L-87,445Z" fill="#d79e7d" stroke="#d79e7d" stroke-width="1.51"/><path d="M-83,923L-97,1215L171,1226Z" fill="#a7595e" stroke="#a7595e" stroke-width="1.51"/><path d="M-286,168L-285,-58L-306,401Z" fill="#d08a49" stroke="#d08a49" stroke-width="1.51"/><path d="M-301,-298L-285,-58L-58,-35Z" fill="#c2670b" stroke="#c2670b" stroke-width="1.51"/><path d="M-345,921L-97,1215L-83,923Z" fill="#a4615f" stroke="#a4615f" stroke-width="1.51"/><path d="M-28,-357L-301,-298L-58,-35Z" fill="#be6309" stroke="#be6309" stroke-width="1.51"/><path d="M-285,-58L-301,-298L-306,401Z" fill="#c77627" stroke="#c77627" stroke-width="1.51"/><path d="M-276,719L-345,921L-83,923Z" fill="#b4786c" stroke="#b4786c" stroke-width="1.51"/><path d="M-306,401L-345,921L-276,719Z" fill="#be8a76" stroke="#be8a76" stroke-width="1.51"/><path d="M-301,-298L-345,921L-306,401Z" fill="#d0976b" stroke="#d0976b" stroke-width="1.51"/><path d="M-345,921L-341,1227L-97,1215Z" fill="#8e4554" stroke="#8e4554" stroke-width="1.51"/><path d="M-97,1215L-341,1227L171,1226Z" fill="#92414e" stroke="#92414e" stroke-width="1.51"/><path d="M171,1226L-341,1227L943,1238Z" fill="#a66570" stroke="#a66570" stroke-width="1.51"/></svg>